<?xml version="1.0" encoding="UTF-8" standalone="no"?><svg xmlns="http://www.w3.org/2000/svg" xmlns:xlink="http://www.w3.org/1999/xlink" contentStyleType="text/css" height="960px" preserveAspectRatio="none" style="width:789px;height:960px;background:#FFFFFF;" version="1.1" viewBox="0 0 789 960" width="789px" zoomAndPan="magnify"><defs/><g><!--MD5=[3fd616f346a44cd59a91eb10b19e157c]
class User--><g id="elem_User"><rect codeLine="2" fill="#F1F1F1" height="152.5918" id="User" rx="2.5" ry="2.5" style="stroke:#181818;stroke-width:0.5;" width="89" x="325.18" y="7"/><ellipse cx="352.78" cy="23" fill="#ADD1B2" rx="11" ry="11" style="stroke:#181818;stroke-width:1.0;"/><path d="M348.9206,28.5 L348.9206,17.2969 L356.9519,17.2969 L356.9519,19.1875 L351.3738,19.1875 L351.3738,21.8906 L356.4519,21.8906 L356.4519,23.7813 L351.3738,23.7813 L351.3738,26.6094 L357.2956,26.6094 L357.2956,28.5 L348.9206,28.5 Z " fill="#000000"/><text fill="#000000" font-family="sans-serif" font-size="14" lengthAdjust="spacing" textLength="29" x="369.58" y="28.0825">User</text><line style="stroke:#181818;stroke-width:0.5;" x1="326.18" x2="413.18" y1="39" y2="39"/><ellipse cx="336.18" cy="50" fill="#000000" rx="3" ry="3" style="stroke:#000000;stroke-width:1.0;"/><text fill="#000000" font-family="sans-serif" font-size="14" lengthAdjust="spacing" textLength="11" x="345.18" y="56.1318">id</text><line style="stroke:#181818;stroke-width:0.5;" x1="326.18" x2="413.18" y1="63.0986" y2="63.0986"/><ellipse cx="336.18" cy="74.0986" fill="#000000" rx="3" ry="3" style="stroke:#000000;stroke-width:1.0;"/><text fill="#000000" font-family="sans-serif" font-size="14" lengthAdjust="spacing" textLength="35" x="345.18" y="80.2305">name</text><ellipse cx="336.18" cy="90.1973" fill="#000000" rx="3" ry="3" style="stroke:#000000;stroke-width:1.0;"/><text fill="#000000" font-family="sans-serif" font-size="14" lengthAdjust="spacing" textLength="63" x="345.18" y="96.3291">username</text><ellipse cx="336.18" cy="106.2959" fill="#000000" rx="3" ry="3" style="stroke:#000000;stroke-width:1.0;"/><text fill="#000000" font-family="sans-serif" font-size="14" lengthAdjust="spacing" textLength="38" x="345.18" y="112.4277">status</text><ellipse cx="336.18" cy="122.3945" fill="#000000" rx="3" ry="3" style="stroke:#000000;stroke-width:1.0;"/><text fill="#000000" font-family="sans-serif" font-size="14" lengthAdjust="spacing" textLength="60" x="345.18" y="128.5264">password</text><line style="stroke:#181818;stroke-width:0.5;" x1="326.18" x2="413.18" y1="135.4932" y2="135.4932"/><ellipse cx="336.18" cy="146.4932" fill="#000000" rx="3" ry="3" style="stroke:#000000;stroke-width:1.0;"/><text fill="#000000" font-family="sans-serif" font-size="14" lengthAdjust="spacing" textLength="43" x="345.18" y="152.625">role_id</text></g><!--MD5=[a3638c1e5b65d287ecad7f06f5c0f212]
class Role--><g id="elem_Role"><rect codeLine="13" fill="#F1F1F1" height="80.1973" id="Role" rx="2.5" ry="2.5" style="stroke:#181818;stroke-width:0.5;" width="61" x="339.18" y="248"/><ellipse cx="354.18" cy="264" fill="#ADD1B2" rx="11" ry="11" style="stroke:#181818;stroke-width:1.0;"/><path d="M350.3206,269.5 L350.3206,258.2969 L358.3519,258.2969 L358.3519,260.1875 L352.7738,260.1875 L352.7738,262.8906 L357.8519,262.8906 L357.8519,264.7813 L352.7738,264.7813 L352.7738,267.6094 L358.6956,267.6094 L358.6956,269.5 L350.3206,269.5 Z " fill="#000000"/><text fill="#000000" font-family="sans-serif" font-size="14" lengthAdjust="spacing" textLength="29" x="368.18" y="269.0825">Role</text><line style="stroke:#181818;stroke-width:0.5;" x1="340.18" x2="399.18" y1="280" y2="280"/><ellipse cx="350.18" cy="291" fill="#000000" rx="3" ry="3" style="stroke:#000000;stroke-width:1.0;"/><text fill="#000000" font-family="sans-serif" font-size="14" lengthAdjust="spacing" textLength="11" x="359.18" y="297.1318">id</text><line style="stroke:#181818;stroke-width:0.5;" x1="340.18" x2="399.18" y1="304.0986" y2="304.0986"/><ellipse cx="350.18" cy="315.0986" fill="#000000" rx="3" ry="3" style="stroke:#000000;stroke-width:1.0;"/><text fill="#000000" font-family="sans-serif" font-size="14" lengthAdjust="spacing" textLength="35" x="359.18" y="321.2305">name</text></g><!--MD5=[2ce0c9fb7f55b1e256ab28a8ea6b25ec]
class Customer--><g id="elem_Customer"><rect codeLine="19" fill="#F1F1F1" height="128.4932" id="Customer" rx="2.5" ry="2.5" style="stroke:#181818;stroke-width:0.5;" width="93" x="107.18" y="19.5"/><ellipse cx="122.18" cy="35.5" fill="#ADD1B2" rx="11" ry="11" style="stroke:#181818;stroke-width:1.0;"/><path d="M118.3206,41 L118.3206,29.7969 L126.3519,29.7969 L126.3519,31.6875 L120.7738,31.6875 L120.7738,34.3906 L125.8519,34.3906 L125.8519,36.2813 L120.7738,36.2813 L120.7738,39.1094 L126.6956,39.1094 L126.6956,41 L118.3206,41 Z " fill="#000000"/><text fill="#000000" font-family="sans-serif" font-size="14" lengthAdjust="spacing" textLength="61" x="136.18" y="40.5825">Customer</text><line style="stroke:#181818;stroke-width:0.5;" x1="108.18" x2="199.18" y1="51.5" y2="51.5"/><ellipse cx="118.18" cy="62.5" fill="#000000" rx="3" ry="3" style="stroke:#000000;stroke-width:1.0;"/><text fill="#000000" font-family="sans-serif" font-size="14" lengthAdjust="spacing" textLength="11" x="127.18" y="68.6318">id</text><line style="stroke:#181818;stroke-width:0.5;" x1="108.18" x2="199.18" y1="75.5986" y2="75.5986"/><ellipse cx="118.18" cy="86.5986" fill="#000000" rx="3" ry="3" style="stroke:#000000;stroke-width:1.0;"/><text fill="#000000" font-family="sans-serif" font-size="14" lengthAdjust="spacing" textLength="35" x="127.18" y="92.7305">name</text><ellipse cx="118.18" cy="102.6973" fill="#000000" rx="3" ry="3" style="stroke:#000000;stroke-width:1.0;"/><text fill="#000000" font-family="sans-serif" font-size="14" lengthAdjust="spacing" textLength="51" x="127.18" y="108.8291">address</text><ellipse cx="118.18" cy="118.7959" fill="#000000" rx="3" ry="3" style="stroke:#000000;stroke-width:1.0;"/><text fill="#000000" font-family="sans-serif" font-size="14" lengthAdjust="spacing" textLength="40" x="127.18" y="124.9277">phone</text><ellipse cx="118.18" cy="134.8945" fill="#000000" rx="3" ry="3" style="stroke:#000000;stroke-width:1.0;"/><text fill="#000000" font-family="sans-serif" font-size="14" lengthAdjust="spacing" textLength="33" x="127.18" y="141.0264">npwp</text></g><!--MD5=[72136138052d025cffdce3c22fbd185f]
class Product--><g id="elem_Product"><rect codeLine="28" fill="#F1F1F1" height="128.4932" id="Product" rx="2.5" ry="2.5" style="stroke:#181818;stroke-width:0.5;" width="81" x="334.18" y="629"/><ellipse cx="349.18" cy="645" fill="#ADD1B2" rx="11" ry="11" style="stroke:#181818;stroke-width:1.0;"/><path d="M345.3206,650.5 L345.3206,639.2969 L353.3519,639.2969 L353.3519,641.1875 L347.7738,641.1875 L347.7738,643.8906 L352.8519,643.8906 L352.8519,645.7813 L347.7738,645.7813 L347.7738,648.6094 L353.6956,648.6094 L353.6956,650.5 L345.3206,650.5 Z " fill="#000000"/><text fill="#000000" font-family="sans-serif" font-size="14" lengthAdjust="spacing" textLength="49" x="363.18" y="650.0825">Product</text><line style="stroke:#181818;stroke-width:0.5;" x1="335.18" x2="414.18" y1="661" y2="661"/><ellipse cx="345.18" cy="672" fill="#000000" rx="3" ry="3" style="stroke:#000000;stroke-width:1.0;"/><text fill="#000000" font-family="sans-serif" font-size="14" lengthAdjust="spacing" textLength="11" x="354.18" y="678.1318">id</text><line style="stroke:#181818;stroke-width:0.5;" x1="335.18" x2="414.18" y1="685.0986" y2="685.0986"/><ellipse cx="345.18" cy="696.0986" fill="#000000" rx="3" ry="3" style="stroke:#000000;stroke-width:1.0;"/><text fill="#000000" font-family="sans-serif" font-size="14" lengthAdjust="spacing" textLength="48" x="354.18" y="702.2305">number</text><ellipse cx="345.18" cy="712.1973" fill="#000000" rx="3" ry="3" style="stroke:#000000;stroke-width:1.0;"/><text fill="#000000" font-family="sans-serif" font-size="14" lengthAdjust="spacing" textLength="35" x="354.18" y="718.3291">name</text><ellipse cx="345.18" cy="728.2959" fill="#000000" rx="3" ry="3" style="stroke:#000000;stroke-width:1.0;"/><text fill="#000000" font-family="sans-serif" font-size="14" lengthAdjust="spacing" textLength="23" x="354.18" y="734.4277">unit</text><ellipse cx="345.18" cy="744.3945" fill="#000000" rx="3" ry="3" style="stroke:#000000;stroke-width:1.0;"/><text fill="#000000" font-family="sans-serif" font-size="14" lengthAdjust="spacing" textLength="32" x="354.18" y="750.5264">profit</text></g><!--MD5=[6f6af049516bc56aac6e320b3234ce97]
class Supplier--><g id="elem_Supplier"><rect codeLine="37" fill="#F1F1F1" height="144.5918" id="Supplier" rx="2.5" ry="2.5" style="stroke:#181818;stroke-width:0.5;" width="84" x="605.68" y="11"/><ellipse cx="620.68" cy="27" fill="#ADD1B2" rx="11" ry="11" style="stroke:#181818;stroke-width:1.0;"/><path d="M616.8206,32.5 L616.8206,21.2969 L624.8519,21.2969 L624.8519,23.1875 L619.2738,23.1875 L619.2738,25.8906 L624.3519,25.8906 L624.3519,27.7813 L619.2738,27.7813 L619.2738,30.6094 L625.1956,30.6094 L625.1956,32.5 L616.8206,32.5 Z " fill="#000000"/><text fill="#000000" font-family="sans-serif" font-size="14" lengthAdjust="spacing" textLength="52" x="634.68" y="32.0825">Supplier</text><line style="stroke:#181818;stroke-width:0.5;" x1="606.68" x2="688.68" y1="43" y2="43"/><ellipse cx="616.68" cy="54" fill="#000000" rx="3" ry="3" style="stroke:#000000;stroke-width:1.0;"/><text fill="#000000" font-family="sans-serif" font-size="14" lengthAdjust="spacing" textLength="11" x="625.68" y="60.1318">id</text><line style="stroke:#181818;stroke-width:0.5;" x1="606.68" x2="688.68" y1="67.0986" y2="67.0986"/><ellipse cx="616.68" cy="78.0986" fill="#000000" rx="3" ry="3" style="stroke:#000000;stroke-width:1.0;"/><text fill="#000000" font-family="sans-serif" font-size="14" lengthAdjust="spacing" textLength="35" x="625.68" y="84.2305">name</text><ellipse cx="616.68" cy="94.1973" fill="#000000" rx="3" ry="3" style="stroke:#000000;stroke-width:1.0;"/><text fill="#000000" font-family="sans-serif" font-size="14" lengthAdjust="spacing" textLength="51" x="625.68" y="100.3291">address</text><ellipse cx="616.68" cy="110.2959" fill="#000000" rx="3" ry="3" style="stroke:#000000;stroke-width:1.0;"/><text fill="#000000" font-family="sans-serif" font-size="14" lengthAdjust="spacing" textLength="40" x="625.68" y="116.4277">phone</text><ellipse cx="616.68" cy="126.3945" fill="#000000" rx="3" ry="3" style="stroke:#000000;stroke-width:1.0;"/><text fill="#000000" font-family="sans-serif" font-size="14" lengthAdjust="spacing" textLength="33" x="625.68" y="132.5264">email</text><ellipse cx="616.68" cy="142.4932" fill="#000000" rx="3" ry="3" style="stroke:#000000;stroke-width:1.0;"/><text fill="#000000" font-family="sans-serif" font-size="14" lengthAdjust="spacing" textLength="33" x="625.68" y="148.625">npwp</text></g><!--MD5=[ca228764f84c38a6bbd29bae3074bbc7]
class Purchase--><g id="elem_Purchase"><rect codeLine="47" fill="#F1F1F1" height="136.4932" id="Purchase" rx="2.5" ry="2.5" style="stroke:#181818;stroke-width:0.5;" width="95" x="503.18" y="220"/><ellipse cx="519.53" cy="236" fill="#ADD1B2" rx="11" ry="11" style="stroke:#181818;stroke-width:1.0;"/><path d="M515.6706,241.5 L515.6706,230.2969 L523.7019,230.2969 L523.7019,232.1875 L518.1238,232.1875 L518.1238,234.8906 L523.2019,234.8906 L523.2019,236.7813 L518.1238,236.7813 L518.1238,239.6094 L524.0456,239.6094 L524.0456,241.5 L515.6706,241.5 Z " fill="#000000"/><text fill="#000000" font-family="sans-serif" font-size="14" lengthAdjust="spacing" textLength="60" x="533.83" y="241.0825">Purchase</text><line style="stroke:#181818;stroke-width:0.5;" x1="504.18" x2="597.18" y1="252" y2="252"/><ellipse cx="514.18" cy="263" fill="#000000" rx="3" ry="3" style="stroke:#000000;stroke-width:1.0;"/><text fill="#000000" font-family="sans-serif" font-size="14" lengthAdjust="spacing" textLength="11" x="523.18" y="269.1318">id</text><line style="stroke:#181818;stroke-width:0.5;" x1="504.18" x2="597.18" y1="276.0986" y2="276.0986"/><ellipse cx="514.18" cy="287.0986" fill="#000000" rx="3" ry="3" style="stroke:#000000;stroke-width:1.0;"/><text fill="#000000" font-family="sans-serif" font-size="14" lengthAdjust="spacing" textLength="48" x="523.18" y="293.2305">number</text><ellipse cx="514.18" cy="303.1973" fill="#000000" rx="3" ry="3" style="stroke:#000000;stroke-width:1.0;"/><text fill="#000000" font-family="sans-serif" font-size="14" lengthAdjust="spacing" textLength="38" x="523.18" y="309.3291">status</text><line style="stroke:#181818;stroke-width:0.5;" x1="504.18" x2="597.18" y1="316.2959" y2="316.2959"/><ellipse cx="514.18" cy="327.2959" fill="#000000" rx="3" ry="3" style="stroke:#000000;stroke-width:1.0;"/><text fill="#000000" font-family="sans-serif" font-size="14" lengthAdjust="spacing" textLength="69" x="523.18" y="333.4277">supplier_id</text><ellipse cx="514.18" cy="343.3945" fill="#000000" rx="3" ry="3" style="stroke:#000000;stroke-width:1.0;"/><text fill="#000000" font-family="sans-serif" font-size="14" lengthAdjust="spacing" textLength="47" x="523.18" y="349.5264">user_id</text></g><!--MD5=[e0bd77868626c22cfc0c5aeed1b8d67f]
class Sale--><g id="elem_Sale"><rect codeLine="57" fill="#F1F1F1" height="136.4932" id="Sale" rx="2.5" ry="2.5" style="stroke:#181818;stroke-width:0.5;" width="103" x="152.18" y="220"/><ellipse cx="186.53" cy="236" fill="#ADD1B2" rx="11" ry="11" style="stroke:#181818;stroke-width:1.0;"/><path d="M182.6706,241.5 L182.6706,230.2969 L190.7019,230.2969 L190.7019,232.1875 L185.1238,232.1875 L185.1238,234.8906 L190.2019,234.8906 L190.2019,236.7813 L185.1238,236.7813 L185.1238,239.6094 L191.0456,239.6094 L191.0456,241.5 L182.6706,241.5 Z " fill="#000000"/><text fill="#000000" font-family="sans-serif" font-size="14" lengthAdjust="spacing" textLength="28" x="204.83" y="241.0825">Sale</text><line style="stroke:#181818;stroke-width:0.5;" x1="153.18" x2="254.18" y1="252" y2="252"/><ellipse cx="163.18" cy="263" fill="#000000" rx="3" ry="3" style="stroke:#000000;stroke-width:1.0;"/><text fill="#000000" font-family="sans-serif" font-size="14" lengthAdjust="spacing" textLength="11" x="172.18" y="269.1318">id</text><line style="stroke:#181818;stroke-width:0.5;" x1="153.18" x2="254.18" y1="276.0986" y2="276.0986"/><ellipse cx="163.18" cy="287.0986" fill="#000000" rx="3" ry="3" style="stroke:#000000;stroke-width:1.0;"/><text fill="#000000" font-family="sans-serif" font-size="14" lengthAdjust="spacing" textLength="48" x="172.18" y="293.2305">number</text><ellipse cx="163.18" cy="303.1973" fill="#000000" rx="3" ry="3" style="stroke:#000000;stroke-width:1.0;"/><text fill="#000000" font-family="sans-serif" font-size="14" lengthAdjust="spacing" textLength="38" x="172.18" y="309.3291">status</text><line style="stroke:#181818;stroke-width:0.5;" x1="153.18" x2="254.18" y1="316.2959" y2="316.2959"/><ellipse cx="163.18" cy="327.2959" fill="#000000" rx="3" ry="3" style="stroke:#000000;stroke-width:1.0;"/><text fill="#000000" font-family="sans-serif" font-size="14" lengthAdjust="spacing" textLength="77" x="172.18" y="333.4277">customer_id</text><ellipse cx="163.18" cy="343.3945" fill="#000000" rx="3" ry="3" style="stroke:#000000;stroke-width:1.0;"/><text fill="#000000" font-family="sans-serif" font-size="14" lengthAdjust="spacing" textLength="47" x="172.18" y="349.5264">user_id</text></g><!--MD5=[0cfc926ac851c171b4800cdea9975fdf]
class StockProduct--><g id="elem_StockProduct"><rect codeLine="67" fill="#F1F1F1" height="136.4932" id="StockProduct" rx="2.5" ry="2.5" style="stroke:#181818;stroke-width:0.5;" width="141" x="304.18" y="424.5"/><ellipse cx="330.43" cy="440.5" fill="#ADD1B2" rx="11" ry="11" style="stroke:#181818;stroke-width:1.0;"/><path d="M326.5706,446 L326.5706,434.7969 L334.6019,434.7969 L334.6019,436.6875 L329.0238,436.6875 L329.0238,439.3906 L334.1019,439.3906 L334.1019,441.2813 L329.0238,441.2813 L329.0238,444.1094 L334.9456,444.1094 L334.9456,446 L326.5706,446 Z " fill="#000000"/><text fill="#000000" font-family="sans-serif" font-size="14" lengthAdjust="spacing" textLength="84" x="346.93" y="445.5825">StockProduct</text><line style="stroke:#181818;stroke-width:0.5;" x1="305.18" x2="444.18" y1="456.5" y2="456.5"/><ellipse cx="315.18" cy="467.5" fill="#000000" rx="3" ry="3" style="stroke:#000000;stroke-width:1.0;"/><text fill="#000000" font-family="sans-serif" font-size="14" lengthAdjust="spacing" textLength="11" x="324.18" y="473.6318">id</text><line style="stroke:#181818;stroke-width:0.5;" x1="305.18" x2="444.18" y1="480.5986" y2="480.5986"/><ellipse cx="315.18" cy="491.5986" fill="#000000" rx="3" ry="3" style="stroke:#000000;stroke-width:1.0;"/><text fill="#000000" font-family="sans-serif" font-size="14" lengthAdjust="spacing" textLength="115" x="324.18" y="497.7305">purchase_number</text><ellipse cx="315.18" cy="507.6973" fill="#000000" rx="3" ry="3" style="stroke:#000000;stroke-width:1.0;"/><text fill="#000000" font-family="sans-serif" font-size="14" lengthAdjust="spacing" textLength="82" x="324.18" y="513.8291">sale_number</text><ellipse cx="315.18" cy="523.7959" fill="#000000" rx="3" ry="3" style="stroke:#000000;stroke-width:1.0;"/><text fill="#000000" font-family="sans-serif" font-size="14" lengthAdjust="spacing" textLength="19" x="324.18" y="529.9277">qty</text><line style="stroke:#181818;stroke-width:0.5;" x1="305.18" x2="444.18" y1="536.8945" y2="536.8945"/><ellipse cx="315.18" cy="547.8945" fill="#000000" rx="3" ry="3" style="stroke:#000000;stroke-width:1.0;"/><text fill="#000000" font-family="sans-serif" font-size="14" lengthAdjust="spacing" textLength="104" x="324.18" y="554.0264">product_number</text></g><!--MD5=[a40a7ac4b423335b0d34bf16cf36e547]
class Price--><g id="elem_Price"><rect codeLine="77" fill="#F1F1F1" height="136.4932" id="Price" rx="2.5" ry="2.5" style="stroke:#181818;stroke-width:0.5;" width="130" x="309.68" y="817"/><ellipse cx="354.43" cy="833" fill="#ADD1B2" rx="11" ry="11" style="stroke:#181818;stroke-width:1.0;"/><path d="M350.5706,838.5 L350.5706,827.2969 L358.6019,827.2969 L358.6019,829.1875 L353.0238,829.1875 L353.0238,831.8906 L358.1019,831.8906 L358.1019,833.7813 L353.0238,833.7813 L353.0238,836.6094 L358.9456,836.6094 L358.9456,838.5 L350.5706,838.5 Z " fill="#000000"/><text fill="#000000" font-family="sans-serif" font-size="14" lengthAdjust="spacing" textLength="32" x="374.93" y="838.0825">Price</text><line style="stroke:#181818;stroke-width:0.5;" x1="310.68" x2="438.68" y1="849" y2="849"/><ellipse cx="320.68" cy="860" fill="#000000" rx="3" ry="3" style="stroke:#000000;stroke-width:1.0;"/><text fill="#000000" font-family="sans-serif" font-size="14" lengthAdjust="spacing" textLength="11" x="329.68" y="866.1318">id</text><line style="stroke:#181818;stroke-width:0.5;" x1="310.68" x2="438.68" y1="873.0986" y2="873.0986"/><ellipse cx="320.68" cy="884.0986" fill="#000000" rx="3" ry="3" style="stroke:#000000;stroke-width:1.0;"/><text fill="#000000" font-family="sans-serif" font-size="14" lengthAdjust="spacing" textLength="31" x="329.68" y="890.2305">price</text><line style="stroke:#181818;stroke-width:0.5;" x1="310.68" x2="438.68" y1="897.1973" y2="897.1973"/><ellipse cx="320.68" cy="908.1973" fill="#000000" rx="3" ry="3" style="stroke:#000000;stroke-width:1.0;"/><text fill="#000000" font-family="sans-serif" font-size="14" lengthAdjust="spacing" textLength="104" x="329.68" y="914.3291">product_number</text><ellipse cx="320.68" cy="924.2959" fill="#000000" rx="3" ry="3" style="stroke:#000000;stroke-width:1.0;"/><text fill="#000000" font-family="sans-serif" font-size="14" lengthAdjust="spacing" textLength="77" x="329.68" y="930.4277">customer_id</text><ellipse cx="320.68" cy="940.3945" fill="#000000" rx="3" ry="3" style="stroke:#000000;stroke-width:1.0;"/><text fill="#000000" font-family="sans-serif" font-size="14" lengthAdjust="spacing" textLength="69" x="329.68" y="946.5264">supplier_id</text></g><!--MD5=[680168ab3c03721c8f7b2302070ae319]
class SaleDetail--><g id="elem_SaleDetail"><rect codeLine="87" fill="#F1F1F1" height="152.5918" id="SaleDetail" rx="2.5" ry="2.5" style="stroke:#181818;stroke-width:0.5;" width="130" x="138.68" y="416"/><ellipse cx="168.98" cy="432" fill="#ADD1B2" rx="11" ry="11" style="stroke:#181818;stroke-width:1.0;"/><path d="M165.1206,437.5 L165.1206,426.2969 L173.1519,426.2969 L173.1519,428.1875 L167.5738,428.1875 L167.5738,430.8906 L172.6519,430.8906 L172.6519,432.7813 L167.5738,432.7813 L167.5738,435.6094 L173.4956,435.6094 L173.4956,437.5 L165.1206,437.5 Z " fill="#000000"/><text fill="#000000" font-family="sans-serif" font-size="14" lengthAdjust="spacing" textLength="64" x="186.38" y="437.0825">SaleDetail</text><line style="stroke:#181818;stroke-width:0.5;" x1="139.68" x2="267.68" y1="448" y2="448"/><ellipse cx="149.68" cy="459" fill="#000000" rx="3" ry="3" style="stroke:#000000;stroke-width:1.0;"/><text fill="#000000" font-family="sans-serif" font-size="14" lengthAdjust="spacing" textLength="11" x="158.68" y="465.1318">id</text><line style="stroke:#181818;stroke-width:0.5;" x1="139.68" x2="267.68" y1="472.0986" y2="472.0986"/><ellipse cx="149.68" cy="483.0986" fill="#000000" rx="3" ry="3" style="stroke:#000000;stroke-width:1.0;"/><text fill="#000000" font-family="sans-serif" font-size="14" lengthAdjust="spacing" textLength="31" x="158.68" y="489.2305">price</text><ellipse cx="149.68" cy="499.1973" fill="#000000" rx="3" ry="3" style="stroke:#000000;stroke-width:1.0;"/><text fill="#000000" font-family="sans-serif" font-size="14" lengthAdjust="spacing" textLength="24" x="158.68" y="505.3291">ppn</text><ellipse cx="149.68" cy="515.2959" fill="#000000" rx="3" ry="3" style="stroke:#000000;stroke-width:1.0;"/><text fill="#000000" font-family="sans-serif" font-size="14" lengthAdjust="spacing" textLength="19" x="158.68" y="521.4277">qty</text><line style="stroke:#181818;stroke-width:0.5;" x1="139.68" x2="267.68" y1="528.3945" y2="528.3945"/><ellipse cx="149.68" cy="539.3945" fill="#000000" rx="3" ry="3" style="stroke:#000000;stroke-width:1.0;"/><text fill="#000000" font-family="sans-serif" font-size="14" lengthAdjust="spacing" textLength="82" x="158.68" y="545.5264">sale_number</text><ellipse cx="149.68" cy="555.4932" fill="#000000" rx="3" ry="3" style="stroke:#000000;stroke-width:1.0;"/><text fill="#000000" font-family="sans-serif" font-size="14" lengthAdjust="spacing" textLength="104" x="158.68" y="561.625">product_number</text></g><!--MD5=[3d9bec551640ffb4a026cc7c78c25b79]
class PurchaseDetail--><g id="elem_PurchaseDetail"><rect codeLine="98" fill="#F1F1F1" height="152.5918" id="PurchaseDetail" rx="2.5" ry="2.5" style="stroke:#181818;stroke-width:0.5;" width="141" x="480.18" y="416"/><ellipse cx="501.03" cy="432" fill="#ADD1B2" rx="11" ry="11" style="stroke:#181818;stroke-width:1.0;"/><path d="M497.1706,437.5 L497.1706,426.2969 L505.2019,426.2969 L505.2019,428.1875 L499.6238,428.1875 L499.6238,430.8906 L504.7019,430.8906 L504.7019,432.7813 L499.6238,432.7813 L499.6238,435.6094 L505.5456,435.6094 L505.5456,437.5 L497.1706,437.5 Z " fill="#000000"/><text fill="#000000" font-family="sans-serif" font-size="14" lengthAdjust="spacing" textLength="96" x="516.33" y="437.0825">PurchaseDetail</text><line style="stroke:#181818;stroke-width:0.5;" x1="481.18" x2="620.18" y1="448" y2="448"/><ellipse cx="491.18" cy="459" fill="#000000" rx="3" ry="3" style="stroke:#000000;stroke-width:1.0;"/><text fill="#000000" font-family="sans-serif" font-size="14" lengthAdjust="spacing" textLength="11" x="500.18" y="465.1318">id</text><line style="stroke:#181818;stroke-width:0.5;" x1="481.18" x2="620.18" y1="472.0986" y2="472.0986"/><ellipse cx="491.18" cy="483.0986" fill="#000000" rx="3" ry="3" style="stroke:#000000;stroke-width:1.0;"/><text fill="#000000" font-family="sans-serif" font-size="14" lengthAdjust="spacing" textLength="31" x="500.18" y="489.2305">price</text><ellipse cx="491.18" cy="499.1973" fill="#000000" rx="3" ry="3" style="stroke:#000000;stroke-width:1.0;"/><text fill="#000000" font-family="sans-serif" font-size="14" lengthAdjust="spacing" textLength="24" x="500.18" y="505.3291">ppn</text><ellipse cx="491.18" cy="515.2959" fill="#000000" rx="3" ry="3" style="stroke:#000000;stroke-width:1.0;"/><text fill="#000000" font-family="sans-serif" font-size="14" lengthAdjust="spacing" textLength="19" x="500.18" y="521.4277">qty</text><line style="stroke:#181818;stroke-width:0.5;" x1="481.18" x2="620.18" y1="528.3945" y2="528.3945"/><ellipse cx="491.18" cy="539.3945" fill="#000000" rx="3" ry="3" style="stroke:#000000;stroke-width:1.0;"/><text fill="#000000" font-family="sans-serif" font-size="14" lengthAdjust="spacing" textLength="115" x="500.18" y="545.5264">purchase_number</text><ellipse cx="491.18" cy="555.4932" fill="#000000" rx="3" ry="3" style="stroke:#000000;stroke-width:1.0;"/><text fill="#000000" font-family="sans-serif" font-size="14" lengthAdjust="spacing" textLength="104" x="500.18" y="561.625">product_number</text></g><!--MD5=[c26ae6d58060a6dc125b0061a9f99778]
class Ppn--><g id="elem_Ppn"><rect codeLine="109" fill="#F1F1F1" height="80.1973" id="Ppn" rx="2.5" ry="2.5" style="stroke:#181818;stroke-width:0.5;" width="57" x="725.18" y="43.5"/><ellipse cx="740.18" cy="59.5" fill="#ADD1B2" rx="11" ry="11" style="stroke:#181818;stroke-width:1.0;"/><path d="M736.3206,65 L736.3206,53.7969 L744.3519,53.7969 L744.3519,55.6875 L738.7738,55.6875 L738.7738,58.3906 L743.8519,58.3906 L743.8519,60.2813 L738.7738,60.2813 L738.7738,63.1094 L744.6956,63.1094 L744.6956,65 L736.3206,65 Z " fill="#000000"/><text fill="#000000" font-family="sans-serif" font-size="14" lengthAdjust="spacing" textLength="25" x="754.18" y="64.5825">Ppn</text><line style="stroke:#181818;stroke-width:0.5;" x1="726.18" x2="781.18" y1="75.5" y2="75.5"/><ellipse cx="736.18" cy="86.5" fill="#000000" rx="3" ry="3" style="stroke:#000000;stroke-width:1.0;"/><text fill="#000000" font-family="sans-serif" font-size="14" lengthAdjust="spacing" textLength="11" x="745.18" y="92.6318">id</text><line style="stroke:#181818;stroke-width:0.5;" x1="726.18" x2="781.18" y1="99.5986" y2="99.5986"/><ellipse cx="736.18" cy="110.5986" fill="#000000" rx="3" ry="3" style="stroke:#000000;stroke-width:1.0;"/><text fill="#000000" font-family="sans-serif" font-size="14" lengthAdjust="spacing" textLength="24" x="745.18" y="116.7305">ppn</text></g><!--MD5=[70c37dc9bfbc8656942103c36f1181e4]
link User to Role--><g id="link_User_Role"><path codeLine="115" d="M369.68,168.28 C369.68,192.59 369.68,218.27 369.68,239.51 " fill="none" id="User-Role" style="stroke:#181818;stroke-width:1.0;"/><line style="stroke:#181818;stroke-width:1.0;" x1="369.68" x2="375.68" y1="239.72" y2="247.72"/><line style="stroke:#181818;stroke-width:1.0;" x1="369.68" x2="363.68" y1="239.72" y2="247.72"/><line style="stroke:#181818;stroke-width:1.0;" x1="369.68" x2="369.68" y1="239.72" y2="247.72"/><line style="stroke:#181818;stroke-width:1.0;" x1="373.68" x2="365.68" y1="237.72" y2="237.72"/><line style="stroke:#181818;stroke-width:1.0;" x1="365.68" x2="373.68" y1="164.19" y2="164.19"/><line style="stroke:#181818;stroke-width:1.0;" x1="365.68" x2="373.68" y1="167.19" y2="167.19"/><line style="stroke:#181818;stroke-width:1.0;" x1="369.68" x2="369.68" y1="168.19" y2="160.19"/></g><!--MD5=[474f0e405c986647f348979b3d9bac30]
link User to Purchase--><g id="link_User_Purchase"><path codeLine="116" d="M419.67,140.42 C443.91,167.54 473.04,200.13 497.67,227.69 " fill="none" id="User-Purchase" style="stroke:#181818;stroke-width:1.0;"/><line style="stroke:#181818;stroke-width:1.0;" x1="503.4946" x2="497.5319" y1="228.2019" y2="233.5354"/><line style="stroke:#181818;stroke-width:1.0;" x1="501.4945" x2="495.5318" y1="225.9659" y2="231.2994"/><line style="stroke:#181818;stroke-width:1.0;" x1="497.8465" x2="503.18" y1="227.8873" y2="233.85"/><line style="stroke:#181818;stroke-width:1.0;" x1="419.5235" x2="409.718" y1="140.2627" y2="138.3001"/><line style="stroke:#181818;stroke-width:1.0;" x1="419.5235" x2="418.662" y1="140.2627" y2="130.2999"/><line style="stroke:#181818;stroke-width:1.0;" x1="419.5235" x2="414.19" y1="140.2627" y2="134.3"/><line style="stroke:#181818;stroke-width:1.0;" x1="417.8756" x2="423.8382" y1="144.4201" y2="139.0866"/></g><!--MD5=[fa16bf6141e1c24f8824fff3082d1ce7]
link User to Sale--><g id="link_User_Sale"><path codeLine="117" d="M319.86,145.28 C301.12,168.14 279.67,194.3 260.35,217.87 " fill="none" id="User-Sale" style="stroke:#181818;stroke-width:1.0;"/><line style="stroke:#181818;stroke-width:1.0;" x1="260.8593" x2="254.6728" y1="223.5628" y2="218.4907"/><line style="stroke:#181818;stroke-width:1.0;" x1="262.7614" x2="256.5748" y1="221.2428" y2="216.1707"/><line style="stroke:#181818;stroke-width:1.0;" x1="260.3021" x2="255.23" y1="217.9334" y2="224.12"/><line style="stroke:#181818;stroke-width:1.0;" x1="319.9079" x2="320.3401" y1="145.2166" y2="135.2259"/><line style="stroke:#181818;stroke-width:1.0;" x1="319.9079" x2="329.6199" y1="145.2166" y2="142.8341"/><line style="stroke:#181818;stroke-width:1.0;" x1="319.9079" x2="324.98" y1="145.2166" y2="139.03"/><line style="stroke:#181818;stroke-width:1.0;" x1="315.5466" x2="321.7331" y1="144.2271" y2="149.2993"/></g><!--MD5=[4e61cc6c8c4df3951b5a0cc721e44351]
link Supplier to Purchase--><g id="link_Supplier_Purchase"><path codeLine="118" d="M609.83,163.53 C602.1,179.66 593.99,196.59 586.34,212.56 " fill="none" id="Supplier-Purchase" style="stroke:#181818;stroke-width:1.0;"/><line style="stroke:#181818;stroke-width:1.0;" x1="588.1958" x2="580.9814" y1="217.9414" y2="214.4842"/><line style="stroke:#181818;stroke-width:1.0;" x1="589.4923" x2="582.2778" y1="215.236" y2="211.7788"/><line style="stroke:#181818;stroke-width:1.0;" x1="586.3172" x2="582.86" y1="212.6056" y2="219.82"/><line style="stroke:#181818;stroke-width:1.0;" x1="609.8928" x2="607.9392" y1="163.3944" y2="153.5871"/><line style="stroke:#181818;stroke-width:1.0;" x1="609.8928" x2="618.7608" y1="163.3944" y2="158.7729"/><line style="stroke:#181818;stroke-width:1.0;" x1="609.8928" x2="613.35" y1="163.3944" y2="156.18"/><line style="stroke:#181818;stroke-width:1.0;" x1="605.4213" x2="612.6357" y1="163.4694" y2="166.9266"/></g><!--MD5=[8dbb028c2b05e4025f5d42a599ab93b5]
link Supplier to Price--><g id="link_Supplier_Price"><path codeLine="119" d="M664.14,163.15 C681.54,259.82 702.67,428.36 672.68,569 C653.6,658.5 649.56,688.66 588.68,757 C549.71,800.75 491.97,833.79 446.29,855.19 " fill="none" id="Supplier-Price" style="stroke:#181818;stroke-width:1.0;"/><line style="stroke:#181818;stroke-width:1.0;" x1="445.232" x2="441.865" y1="860.075" y2="852.818"/><line style="stroke:#181818;stroke-width:1.0;" x1="447.9533" x2="444.5864" y1="858.8124" y2="851.5554"/><line style="stroke:#181818;stroke-width:1.0;" x1="447.177" x2="439.92" y1="854.763" y2="858.13"/><line style="stroke:#181818;stroke-width:1.0;" x1="659.6235" x2="667.4934" y1="160.6734" y2="159.2365"/><line style="stroke:#181818;stroke-width:1.0;" x1="660.1623" x2="668.0322" y1="163.6246" y2="162.1878"/><line style="stroke:#181818;stroke-width:1.0;" x1="664.2768" x2="662.84" y1="163.8899" y2="156.02"/></g><!--MD5=[d458a1e609d20b4df6a1b1701aeabf58]
link Customer to Sale--><g id="link_Customer_Sale"><path codeLine="120" d="M171.24,155.62 C175.74,173.83 180.59,193.47 185.14,211.88 " fill="none" id="Customer-Sale" style="stroke:#181818;stroke-width:1.0;"/><line style="stroke:#181818;stroke-width:1.0;" x1="185.1433" x2="192.8852" y1="211.913" y2="218.2425"/><line style="stroke:#181818;stroke-width:1.0;" x1="185.1433" x2="181.2348" y1="211.913" y2="221.1175"/><line style="stroke:#181818;stroke-width:1.0;" x1="185.1433" x2="187.06" y1="211.913" y2="219.68"/><line style="stroke:#181818;stroke-width:1.0;" x1="188.5476" x2="180.7806" y1="209.0129" y2="210.9296"/><line style="stroke:#181818;stroke-width:1.0;" x1="166.3812" x2="174.1457" y1="152.5857" y2="150.6588"/><line style="stroke:#181818;stroke-width:1.0;" x1="167.1037" x2="174.8682" y1="155.4974" y2="153.5705"/><line style="stroke:#181818;stroke-width:1.0;" x1="171.2268" x2="169.3" y1="155.5045" y2="147.74"/></g><!--MD5=[ae2c05453d21049e7a5e02ab04069fb0]
link Customer to Price--><g id="link_Customer_Price"><path codeLine="121" d="M127.01,154.51 C81.44,287.23 6,578.11 142.68,757 C182.72,809.4 250.84,842.97 302.95,862.36 " fill="none" id="Customer-Price" style="stroke:#181818;stroke-width:1.0;"/><line style="stroke:#181818;stroke-width:1.0;" x1="307.1648" x2="304.406" y1="859.626" y2="867.1352"/><line style="stroke:#181818;stroke-width:1.0;" x1="304.3488" x2="301.59" y1="858.5914" y2="866.1006"/><line style="stroke:#181818;stroke-width:1.0;" x1="302.0307" x2="309.54" y1="862.0012" y2="864.76"/><line style="stroke:#181818;stroke-width:1.0;" x1="124.3429" x2="131.9041" y1="150.0141" y2="152.6271"/><line style="stroke:#181818;stroke-width:1.0;" x1="123.363" x2="130.9243" y1="152.8496" y2="155.4626"/><line style="stroke:#181818;stroke-width:1.0;" x1="126.817" x2="129.43" y1="155.1012" y2="147.54"/></g><!--MD5=[1b8181cc673ea47d6cea814c6d86a94d]
link Sale to SaleDetail--><g id="link_Sale_SaleDetail"><path codeLine="122" d="M203.68,363.39 C203.68,378.07 203.68,393.56 203.68,408.5 " fill="none" id="Sale-SaleDetail" style="stroke:#181818;stroke-width:1.0;"/><line style="stroke:#181818;stroke-width:1.0;" x1="207.68" x2="199.68" y1="411.79" y2="411.79"/><line style="stroke:#181818;stroke-width:1.0;" x1="207.68" x2="199.68" y1="408.79" y2="408.79"/><line style="stroke:#181818;stroke-width:1.0;" x1="203.68" x2="203.68" y1="407.79" y2="415.79"/><line style="stroke:#181818;stroke-width:1.0;" x1="199.68" x2="207.68" y1="360.15" y2="360.15"/><line style="stroke:#181818;stroke-width:1.0;" x1="199.68" x2="207.68" y1="363.15" y2="363.15"/><line style="stroke:#181818;stroke-width:1.0;" x1="203.68" x2="203.68" y1="364.15" y2="356.15"/></g><!--MD5=[fd58fb4015992d940e1d5ff8549f8c35]
link Sale to Price--><g id="link_Sale_Price"><path codeLine="123" d="M148.25,358.24 C136.93,376.07 126.66,395.93 120.68,416 C101.28,481.17 98.05,504.88 120.68,569 C156.96,671.77 242.55,765.67 304.36,823.7 " fill="none" id="Sale-Price" style="stroke:#181818;stroke-width:1.0;"/><line style="stroke:#181818;stroke-width:1.0;" x1="309.3239" x2="303.8665" y1="822.8565" y2="828.7061"/><line style="stroke:#181818;stroke-width:1.0;" x1="307.1304" x2="301.673" y1="820.81" y2="826.6596"/><line style="stroke:#181818;stroke-width:1.0;" x1="303.6705" x2="309.52" y1="823.0526" y2="828.51"/><line style="stroke:#181818;stroke-width:1.0;" x1="146.5966" x2="153.3052" y1="353.4452" y2="357.8034"/><line style="stroke:#181818;stroke-width:1.0;" x1="144.9623" x2="151.6709" y1="355.961" y2="360.3192"/><line style="stroke:#181818;stroke-width:1.0;" x1="147.7718" x2="152.13" y1="358.9787" y2="352.27"/></g><!--MD5=[c0e5a52b16fbcef22495159b374d909e]
link Purchase to PurchaseDetail--><g id="link_Purchase_PurchaseDetail"><path codeLine="124" d="M550.68,364.31 C550.68,378.37 550.68,393.14 550.68,407.43 " fill="none" id="Purchase-PurchaseDetail" style="stroke:#181818;stroke-width:1.0;"/><line style="stroke:#181818;stroke-width:1.0;" x1="554.68" x2="546.68" y1="411.79" y2="411.79"/><line style="stroke:#181818;stroke-width:1.0;" x1="554.68" x2="546.68" y1="408.79" y2="408.79"/><line style="stroke:#181818;stroke-width:1.0;" x1="550.68" x2="550.68" y1="407.79" y2="415.79"/><line style="stroke:#181818;stroke-width:1.0;" x1="550.68" x2="544.68" y1="364.15" y2="356.15"/><line style="stroke:#181818;stroke-width:1.0;" x1="550.68" x2="556.68" y1="364.15" y2="356.15"/><line style="stroke:#181818;stroke-width:1.0;" x1="550.68" x2="550.68" y1="364.15" y2="356.15"/><line style="stroke:#181818;stroke-width:1.0;" x1="546.68" x2="554.68" y1="366.15" y2="366.15"/></g><!--MD5=[9aab0b89b89995cf669aab5ed34799da]
link Purchase to Price--><g id="link_Purchase_Price"><path codeLine="125" d="M602.67,348.16 C617.24,368.32 631.15,391.88 638.68,416 C658.97,480.9 661.92,505.09 638.68,569 C600.38,674.34 509.68,769.01 445.31,826.44 " fill="none" id="Purchase-Price" style="stroke:#181818;stroke-width:1.0;"/><line style="stroke:#181818;stroke-width:1.0;" x1="445.5965" x2="440.2927" y1="831.5327" y2="825.5435"/><line style="stroke:#181818;stroke-width:1.0;" x1="447.8424" x2="442.5386" y1="829.5438" y2="823.5546"/><line style="stroke:#181818;stroke-width:1.0;" x1="445.9392" x2="439.95" y1="825.8862" y2="831.19"/><line style="stroke:#181818;stroke-width:1.0;" x1="597.4989" x2="603.934" y1="347.894" y2="343.1411"/><line style="stroke:#181818;stroke-width:1.0;" x1="599.2812" x2="605.7163" y1="350.3071" y2="345.5543"/><line style="stroke:#181818;stroke-width:1.0;" x1="603.0928" x2="598.34" y1="348.7351" y2="342.3"/></g><!--MD5=[d9346253e56b18202ac3beab23dddd24]
link Purchase to StockProduct--><g id="link_Purchase_StockProduct"><path codeLine="126" d="M497.67,350 C479.03,371.45 457.89,395.77 438.46,418.12 " fill="none" id="Purchase-StockProduct" style="stroke:#181818;stroke-width:1.0;"/><line style="stroke:#181818;stroke-width:1.0;" x1="438.2727" x2="437.562" y1="418.3273" y2="428.302"/><line style="stroke:#181818;stroke-width:1.0;" x1="438.2727" x2="428.498" y1="418.3273" y2="420.438"/><line style="stroke:#181818;stroke-width:1.0;" x1="438.2727" x2="433.03" y1="418.3273" y2="424.37"/><line style="stroke:#181818;stroke-width:1.0;" x1="442.6047" x2="436.562" y1="419.438" y2="414.1953"/><line style="stroke:#181818;stroke-width:1.0;" x1="497.4168" x2="503.4534" y1="344.1934" y2="349.4432"/><line style="stroke:#181818;stroke-width:1.0;" x1="495.4482" x2="501.4847" y1="346.4571" y2="351.7069"/><line style="stroke:#181818;stroke-width:1.0;" x1="497.8102" x2="503.06" y1="349.8365" y2="343.8"/></g><!--MD5=[cc8c2cf61c441007fd82fc98c1838a15]
link SaleDetail to Product--><g id="link_SaleDetail_Product"><path codeLine="127" d="M274.24,575.41 C292.6,596.72 311.91,619.13 328.64,638.55 " fill="none" id="SaleDetail-Product" style="stroke:#181818;stroke-width:1.0;"/><line style="stroke:#181818;stroke-width:1.0;" x1="328.7678" x2="338.5318" y1="638.681" y2="640.8408"/><line style="stroke:#181818;stroke-width:1.0;" x1="328.7678" x2="329.4282" y1="638.681" y2="648.6592"/><line style="stroke:#181818;stroke-width:1.0;" x1="328.7678" x2="333.98" y1="638.681" y2="644.75"/><line style="stroke:#181818;stroke-width:1.0;" x1="330.4992" x2="324.4302" y1="634.5576" y2="639.7698"/><line style="stroke:#181818;stroke-width:1.0;" x1="268.4058" x2="274.4617" y1="574.7517" y2="569.5242"/><line style="stroke:#181818;stroke-width:1.0;" x1="270.3661" x2="276.422" y1="577.0226" y2="571.7951"/><line style="stroke:#181818;stroke-width:1.0;" x1="274.0475" x2="268.82" y1="575.1659" y2="569.11"/></g><!--MD5=[5a75ef0720b826a25eafd7a682d30a1b]
link Sale to StockProduct--><g id="link_Sale_StockProduct"><path codeLine="128" d="M260.62,356.42 C277.31,376.19 295.65,397.91 312.65,418.04 " fill="none" id="Sale-StockProduct" style="stroke:#181818;stroke-width:1.0;"/><line style="stroke:#181818;stroke-width:1.0;" x1="312.7221" x2="322.4664" y1="418.1148" y2="420.3616"/><line style="stroke:#181818;stroke-width:1.0;" x1="312.7221" x2="313.2936" y1="418.1148" y2="428.0984"/><line style="stroke:#181818;stroke-width:1.0;" x1="312.7221" x2="317.88" y1="418.1148" y2="424.23"/><line style="stroke:#181818;stroke-width:1.0;" x1="314.4902" x2="308.375" y1="414.007" y2="419.1649"/><line style="stroke:#181818;stroke-width:1.0;" x1="254.7414" x2="260.8566" y1="355.6666" y2="350.5086"/><line style="stroke:#181818;stroke-width:1.0;" x1="256.6756" x2="262.7908" y1="357.9598" y2="352.8018"/><line style="stroke:#181818;stroke-width:1.0;" x1="260.3779" x2="255.22" y1="356.1452" y2="350.03"/></g><!--MD5=[636c4cbf2bb40ce634cacaf01a62e11c]
link PurchaseDetail to Product--><g id="link_PurchaseDetail_Product"><path codeLine="129" d="M478.21,575.23 C458.75,597.19 438.24,620.32 420.65,640.16 " fill="none" id="PurchaseDetail-Product" style="stroke:#181818;stroke-width:1.0;"/><line style="stroke:#181818;stroke-width:1.0;" x1="420.5934" x2="419.7821" y1="640.2105" y2="650.1775"/><line style="stroke:#181818;stroke-width:1.0;" x1="420.5934" x2="410.7979" y1="640.2105" y2="642.2225"/><line style="stroke:#181818;stroke-width:1.0;" x1="420.5934" x2="415.29" y1="640.2105" y2="646.2"/><line style="stroke:#181818;stroke-width:1.0;" x1="424.914" x2="418.9244" y1="641.3648" y2="636.0614"/><line style="stroke:#181818;stroke-width:1.0;" x1="477.9936" x2="483.9831" y1="569.4531" y2="574.7564"/><line style="stroke:#181818;stroke-width:1.0;" x1="476.0048" x2="481.9943" y1="571.6991" y2="577.0025"/><line style="stroke:#181818;stroke-width:1.0;" x1="478.3366" x2="483.64" y1="575.0995" y2="569.11"/></g><!--MD5=[469537f6e6fbfad22558102ade648a2e]
link StockProduct to Product--><g id="link_StockProduct_Product"><path codeLine="130" d="M374.68,568.81 C374.68,585.83 374.68,603.86 374.68,620.72 " fill="none" id="StockProduct-Product" style="stroke:#181818;stroke-width:1.0;"/><line style="stroke:#181818;stroke-width:1.0;" x1="374.68" x2="380.68" y1="620.89" y2="628.89"/><line style="stroke:#181818;stroke-width:1.0;" x1="374.68" x2="368.68" y1="620.89" y2="628.89"/><line style="stroke:#181818;stroke-width:1.0;" x1="374.68" x2="374.68" y1="620.89" y2="628.89"/><line style="stroke:#181818;stroke-width:1.0;" x1="378.68" x2="370.68" y1="618.89" y2="618.89"/><line style="stroke:#181818;stroke-width:1.0;" x1="370.68" x2="378.68" y1="564.7" y2="564.7"/><line style="stroke:#181818;stroke-width:1.0;" x1="370.68" x2="378.68" y1="567.7" y2="567.7"/><line style="stroke:#181818;stroke-width:1.0;" x1="374.68" x2="374.68" y1="568.7" y2="560.7"/></g><!--MD5=[5fa2e163e1a5922a0d0ebcb119c05bb7]
link Product to Price--><g id="link_Product_Price"><path codeLine="131" d="M374.68,764.3 C374.68,779.09 374.68,794.73 374.68,809.66 " fill="none" id="Product-Price" style="stroke:#181818;stroke-width:1.0;"/><line style="stroke:#181818;stroke-width:1.0;" x1="378.68" x2="370.68" y1="812.93" y2="812.93"/><line style="stroke:#181818;stroke-width:1.0;" x1="378.68" x2="370.68" y1="809.93" y2="809.93"/><line style="stroke:#181818;stroke-width:1.0;" x1="374.68" x2="374.68" y1="808.93" y2="816.93"/><line style="stroke:#181818;stroke-width:1.0;" x1="370.68" x2="378.68" y1="761" y2="761"/><line style="stroke:#181818;stroke-width:1.0;" x1="370.68" x2="378.68" y1="764" y2="764"/><line style="stroke:#181818;stroke-width:1.0;" x1="374.68" x2="374.68" y1="765" y2="757"/></g><!--MD5=[6ccd130684db3a325492519a433f01fa]
@startuml Database

entity User {
  * id
  __
  * name
  * username
  * status
  * password
  __
  * role_id
}

entity Role {
  * id
  __
  * name
}

entity Customer {
  * id
  __
  * name
  * address
  * phone
  * npwp
}

entity Product {
  * id
  __
  * number
  * name
  * unit
  * profit
}

entity Supplier {
  * id
  __
  * name
  * address
  * phone
  * email
  * npwp
}

entity Purchase {
  * id
  __
  * number
  * status
  __
  * supplier_id
  * user_id
}

entity Sale {
  * id
  __
  * number
  * status
  __
  * customer_id
  * user_id
}

entity StockProduct {
  * id
  __
  * purchase_number
  * sale_number
  * qty
  __
  * product_number
}

entity Price {
  * id
  __
  * price
  __
  * product_number
  * customer_id
  * supplier_id
}

entity SaleDetail {
  * id
  __
  * price
  * ppn
  * qty
  __
  * sale_number
  * product_number
}

entity PurchaseDetail {
  * id
  __
  * price
  * ppn
  * qty
  __
  * purchase_number
  * product_number
}

entity Ppn {
  * id
  __
  * ppn
}

User ||- -|{ Role
User }|- -|| Purchase
User }|- -|| Sale
Supplier }|- -|| Purchase
Supplier ||- -|| Price
Customer ||- -|{ Sale
Customer ||- -|| Price
Sale ||- -|| SaleDetail
Sale ||- -|| Price
Purchase }|- -|| PurchaseDetail
Purchase ||- -|| Price
Purchase ||- -|{ StockProduct
SaleDetail ||- -|{ Product
Sale ||- -|{ StockProduct
PurchaseDetail ||- -|{ Product
StockProduct ||- -|{ Product
Product ||- -|| Price
@end

PlantUML version 1.2022.5(Sat Apr 30 17:55:52 WIB 2022)
(GPL source distribution)
Java Runtime: OpenJDK Runtime Environment
JVM: OpenJDK 64-Bit Server VM
Default Encoding: UTF-8
Language: en
Country: US
--></g></svg>