<?xml version="1.0" encoding="UTF-8" standalone="no"?><svg xmlns="http://www.w3.org/2000/svg" xmlns:xlink="http://www.w3.org/1999/xlink" contentStyleType="text/css" height="1280px" preserveAspectRatio="none" style="width:568px;height:1280px;background:#FFFFFF;" version="1.1" viewBox="0 0 568 1280" width="568px" zoomAndPan="magnify"><defs/><g><!--MD5=[3fd616f346a44cd59a91eb10b19e157c]
class User--><g id="elem_User"><rect codeLine="2" fill="#F1F1F1" height="152.5918" id="User" rx="2.5" ry="2.5" style="stroke:#181818;stroke-width:0.5;" width="89" x="263.5" y="147"/><ellipse cx="291.1" cy="163" fill="#ADD1B2" rx="11" ry="11" style="stroke:#181818;stroke-width:1.0;"/><path d="M287.2406,168.5 L287.2406,157.2969 L295.2719,157.2969 L295.2719,159.1875 L289.6938,159.1875 L289.6938,161.8906 L294.7719,161.8906 L294.7719,163.7813 L289.6938,163.7813 L289.6938,166.6094 L295.6156,166.6094 L295.6156,168.5 L287.2406,168.5 Z " fill="#000000"/><text fill="#000000" font-family="sans-serif" font-size="14" lengthAdjust="spacing" textLength="29" x="307.9" y="168.0825">User</text><line style="stroke:#181818;stroke-width:0.5;" x1="264.5" x2="351.5" y1="179" y2="179"/><ellipse cx="274.5" cy="190" fill="#000000" rx="3" ry="3" style="stroke:#000000;stroke-width:1.0;"/><text fill="#000000" font-family="sans-serif" font-size="14" lengthAdjust="spacing" textLength="11" x="283.5" y="196.1318">id</text><line style="stroke:#181818;stroke-width:0.5;" x1="264.5" x2="351.5" y1="203.0986" y2="203.0986"/><ellipse cx="274.5" cy="214.0986" fill="#000000" rx="3" ry="3" style="stroke:#000000;stroke-width:1.0;"/><text fill="#000000" font-family="sans-serif" font-size="14" lengthAdjust="spacing" textLength="35" x="283.5" y="220.2305">name</text><ellipse cx="274.5" cy="230.1973" fill="#000000" rx="3" ry="3" style="stroke:#000000;stroke-width:1.0;"/><text fill="#000000" font-family="sans-serif" font-size="14" lengthAdjust="spacing" textLength="63" x="283.5" y="236.3291">username</text><ellipse cx="274.5" cy="246.2959" fill="#000000" rx="3" ry="3" style="stroke:#000000;stroke-width:1.0;"/><text fill="#000000" font-family="sans-serif" font-size="14" lengthAdjust="spacing" textLength="38" x="283.5" y="252.4277">status</text><ellipse cx="274.5" cy="262.3945" fill="#000000" rx="3" ry="3" style="stroke:#000000;stroke-width:1.0;"/><text fill="#000000" font-family="sans-serif" font-size="14" lengthAdjust="spacing" textLength="60" x="283.5" y="268.5264">password</text><line style="stroke:#181818;stroke-width:0.5;" x1="264.5" x2="351.5" y1="275.4932" y2="275.4932"/><ellipse cx="274.5" cy="286.4932" fill="#000000" rx="3" ry="3" style="stroke:#000000;stroke-width:1.0;"/><text fill="#000000" font-family="sans-serif" font-size="14" lengthAdjust="spacing" textLength="43" x="283.5" y="292.625">role_id</text></g><!--MD5=[a3638c1e5b65d287ecad7f06f5c0f212]
class Role--><g id="elem_Role"><rect codeLine="13" fill="#F1F1F1" height="80.1973" id="Role" rx="2.5" ry="2.5" style="stroke:#181818;stroke-width:0.5;" width="61" x="277.5" y="7"/><ellipse cx="292.5" cy="23" fill="#ADD1B2" rx="11" ry="11" style="stroke:#181818;stroke-width:1.0;"/><path d="M288.6406,28.5 L288.6406,17.2969 L296.6719,17.2969 L296.6719,19.1875 L291.0938,19.1875 L291.0938,21.8906 L296.1719,21.8906 L296.1719,23.7813 L291.0938,23.7813 L291.0938,26.6094 L297.0156,26.6094 L297.0156,28.5 L288.6406,28.5 Z " fill="#000000"/><text fill="#000000" font-family="sans-serif" font-size="14" lengthAdjust="spacing" textLength="29" x="306.5" y="28.0825">Role</text><line style="stroke:#181818;stroke-width:0.5;" x1="278.5" x2="337.5" y1="39" y2="39"/><ellipse cx="288.5" cy="50" fill="#000000" rx="3" ry="3" style="stroke:#000000;stroke-width:1.0;"/><text fill="#000000" font-family="sans-serif" font-size="14" lengthAdjust="spacing" textLength="11" x="297.5" y="56.1318">id</text><line style="stroke:#181818;stroke-width:0.5;" x1="278.5" x2="337.5" y1="63.0986" y2="63.0986"/><ellipse cx="288.5" cy="74.0986" fill="#000000" rx="3" ry="3" style="stroke:#000000;stroke-width:1.0;"/><text fill="#000000" font-family="sans-serif" font-size="14" lengthAdjust="spacing" textLength="35" x="297.5" y="80.2305">name</text></g><!--MD5=[2ce0c9fb7f55b1e256ab28a8ea6b25ec]
class Customer--><g id="elem_Customer"><rect codeLine="19" fill="#F1F1F1" height="128.4932" id="Customer" rx="2.5" ry="2.5" style="stroke:#181818;stroke-width:0.5;" width="93" x="79.5" y="159.5"/><ellipse cx="94.5" cy="175.5" fill="#ADD1B2" rx="11" ry="11" style="stroke:#181818;stroke-width:1.0;"/><path d="M90.6406,181 L90.6406,169.7969 L98.6719,169.7969 L98.6719,171.6875 L93.0938,171.6875 L93.0938,174.3906 L98.1719,174.3906 L98.1719,176.2813 L93.0938,176.2813 L93.0938,179.1094 L99.0156,179.1094 L99.0156,181 L90.6406,181 Z " fill="#000000"/><text fill="#000000" font-family="sans-serif" font-size="14" lengthAdjust="spacing" textLength="61" x="108.5" y="180.5825">Customer</text><line style="stroke:#181818;stroke-width:0.5;" x1="80.5" x2="171.5" y1="191.5" y2="191.5"/><ellipse cx="90.5" cy="202.5" fill="#000000" rx="3" ry="3" style="stroke:#000000;stroke-width:1.0;"/><text fill="#000000" font-family="sans-serif" font-size="14" lengthAdjust="spacing" textLength="11" x="99.5" y="208.6318">id</text><line style="stroke:#181818;stroke-width:0.5;" x1="80.5" x2="171.5" y1="215.5986" y2="215.5986"/><ellipse cx="90.5" cy="226.5986" fill="#000000" rx="3" ry="3" style="stroke:#000000;stroke-width:1.0;"/><text fill="#000000" font-family="sans-serif" font-size="14" lengthAdjust="spacing" textLength="35" x="99.5" y="232.7305">name</text><ellipse cx="90.5" cy="242.6973" fill="#000000" rx="3" ry="3" style="stroke:#000000;stroke-width:1.0;"/><text fill="#000000" font-family="sans-serif" font-size="14" lengthAdjust="spacing" textLength="51" x="99.5" y="248.8291">address</text><ellipse cx="90.5" cy="258.7959" fill="#000000" rx="3" ry="3" style="stroke:#000000;stroke-width:1.0;"/><text fill="#000000" font-family="sans-serif" font-size="14" lengthAdjust="spacing" textLength="40" x="99.5" y="264.9277">phone</text><ellipse cx="90.5" cy="274.8945" fill="#000000" rx="3" ry="3" style="stroke:#000000;stroke-width:1.0;"/><text fill="#000000" font-family="sans-serif" font-size="14" lengthAdjust="spacing" textLength="33" x="99.5" y="281.0264">npwp</text></g><!--MD5=[72136138052d025cffdce3c22fbd185f]
class Product--><g id="elem_Product"><rect codeLine="28" fill="#F1F1F1" height="112.3945" id="Product" rx="2.5" ry="2.5" style="stroke:#181818;stroke-width:0.5;" width="81" x="242.5" y="965"/><ellipse cx="257.5" cy="981" fill="#ADD1B2" rx="11" ry="11" style="stroke:#181818;stroke-width:1.0;"/><path d="M253.6406,986.5 L253.6406,975.2969 L261.6719,975.2969 L261.6719,977.1875 L256.0938,977.1875 L256.0938,979.8906 L261.1719,979.8906 L261.1719,981.7813 L256.0938,981.7813 L256.0938,984.6094 L262.0156,984.6094 L262.0156,986.5 L253.6406,986.5 Z " fill="#000000"/><text fill="#000000" font-family="sans-serif" font-size="14" lengthAdjust="spacing" textLength="49" x="271.5" y="986.0825">Product</text><line style="stroke:#181818;stroke-width:0.5;" x1="243.5" x2="322.5" y1="997" y2="997"/><ellipse cx="253.5" cy="1008" fill="#000000" rx="3" ry="3" style="stroke:#000000;stroke-width:1.0;"/><text fill="#000000" font-family="sans-serif" font-size="14" lengthAdjust="spacing" textLength="11" x="262.5" y="1014.1318">id</text><line style="stroke:#181818;stroke-width:0.5;" x1="243.5" x2="322.5" y1="1021.0986" y2="1021.0986"/><ellipse cx="253.5" cy="1032.0986" fill="#000000" rx="3" ry="3" style="stroke:#000000;stroke-width:1.0;"/><text fill="#000000" font-family="sans-serif" font-size="14" lengthAdjust="spacing" textLength="48" x="262.5" y="1038.2305">number</text><ellipse cx="253.5" cy="1048.1973" fill="#000000" rx="3" ry="3" style="stroke:#000000;stroke-width:1.0;"/><text fill="#000000" font-family="sans-serif" font-size="14" lengthAdjust="spacing" textLength="35" x="262.5" y="1054.3291">name</text><ellipse cx="253.5" cy="1064.2959" fill="#000000" rx="3" ry="3" style="stroke:#000000;stroke-width:1.0;"/><text fill="#000000" font-family="sans-serif" font-size="14" lengthAdjust="spacing" textLength="23" x="262.5" y="1070.4277">unit</text></g><!--MD5=[6f6af049516bc56aac6e320b3234ce97]
class Supplier--><g id="elem_Supplier"><rect codeLine="36" fill="#F1F1F1" height="144.5918" id="Supplier" rx="2.5" ry="2.5" style="stroke:#181818;stroke-width:0.5;" width="84" x="416" y="151"/><ellipse cx="431" cy="167" fill="#ADD1B2" rx="11" ry="11" style="stroke:#181818;stroke-width:1.0;"/><path d="M427.1406,172.5 L427.1406,161.2969 L435.1719,161.2969 L435.1719,163.1875 L429.5938,163.1875 L429.5938,165.8906 L434.6719,165.8906 L434.6719,167.7813 L429.5938,167.7813 L429.5938,170.6094 L435.5156,170.6094 L435.5156,172.5 L427.1406,172.5 Z " fill="#000000"/><text fill="#000000" font-family="sans-serif" font-size="14" lengthAdjust="spacing" textLength="52" x="445" y="172.0825">Supplier</text><line style="stroke:#181818;stroke-width:0.5;" x1="417" x2="499" y1="183" y2="183"/><ellipse cx="427" cy="194" fill="#000000" rx="3" ry="3" style="stroke:#000000;stroke-width:1.0;"/><text fill="#000000" font-family="sans-serif" font-size="14" lengthAdjust="spacing" textLength="11" x="436" y="200.1318">id</text><line style="stroke:#181818;stroke-width:0.5;" x1="417" x2="499" y1="207.0986" y2="207.0986"/><ellipse cx="427" cy="218.0986" fill="#000000" rx="3" ry="3" style="stroke:#000000;stroke-width:1.0;"/><text fill="#000000" font-family="sans-serif" font-size="14" lengthAdjust="spacing" textLength="35" x="436" y="224.2305">name</text><ellipse cx="427" cy="234.1973" fill="#000000" rx="3" ry="3" style="stroke:#000000;stroke-width:1.0;"/><text fill="#000000" font-family="sans-serif" font-size="14" lengthAdjust="spacing" textLength="51" x="436" y="240.3291">address</text><ellipse cx="427" cy="250.2959" fill="#000000" rx="3" ry="3" style="stroke:#000000;stroke-width:1.0;"/><text fill="#000000" font-family="sans-serif" font-size="14" lengthAdjust="spacing" textLength="40" x="436" y="256.4277">phone</text><ellipse cx="427" cy="266.3945" fill="#000000" rx="3" ry="3" style="stroke:#000000;stroke-width:1.0;"/><text fill="#000000" font-family="sans-serif" font-size="14" lengthAdjust="spacing" textLength="33" x="436" y="272.5264">email</text><ellipse cx="427" cy="282.4932" fill="#000000" rx="3" ry="3" style="stroke:#000000;stroke-width:1.0;"/><text fill="#000000" font-family="sans-serif" font-size="14" lengthAdjust="spacing" textLength="33" x="436" y="288.625">npwp</text></g><!--MD5=[ca228764f84c38a6bbd29bae3074bbc7]
class Purchase--><g id="elem_Purchase"><rect codeLine="46" fill="#F1F1F1" height="136.4932" id="Purchase" rx="2.5" ry="2.5" style="stroke:#181818;stroke-width:0.5;" width="95" x="349.5" y="360"/><ellipse cx="365.85" cy="376" fill="#ADD1B2" rx="11" ry="11" style="stroke:#181818;stroke-width:1.0;"/><path d="M361.9906,381.5 L361.9906,370.2969 L370.0219,370.2969 L370.0219,372.1875 L364.4438,372.1875 L364.4438,374.8906 L369.5219,374.8906 L369.5219,376.7813 L364.4438,376.7813 L364.4438,379.6094 L370.3656,379.6094 L370.3656,381.5 L361.9906,381.5 Z " fill="#000000"/><text fill="#000000" font-family="sans-serif" font-size="14" lengthAdjust="spacing" textLength="60" x="380.15" y="381.0825">Purchase</text><line style="stroke:#181818;stroke-width:0.5;" x1="350.5" x2="443.5" y1="392" y2="392"/><ellipse cx="360.5" cy="403" fill="#000000" rx="3" ry="3" style="stroke:#000000;stroke-width:1.0;"/><text fill="#000000" font-family="sans-serif" font-size="14" lengthAdjust="spacing" textLength="11" x="369.5" y="409.1318">id</text><line style="stroke:#181818;stroke-width:0.5;" x1="350.5" x2="443.5" y1="416.0986" y2="416.0986"/><ellipse cx="360.5" cy="427.0986" fill="#000000" rx="3" ry="3" style="stroke:#000000;stroke-width:1.0;"/><text fill="#000000" font-family="sans-serif" font-size="14" lengthAdjust="spacing" textLength="48" x="369.5" y="433.2305">number</text><ellipse cx="360.5" cy="443.1973" fill="#000000" rx="3" ry="3" style="stroke:#000000;stroke-width:1.0;"/><text fill="#000000" font-family="sans-serif" font-size="14" lengthAdjust="spacing" textLength="38" x="369.5" y="449.3291">status</text><line style="stroke:#181818;stroke-width:0.5;" x1="350.5" x2="443.5" y1="456.2959" y2="456.2959"/><ellipse cx="360.5" cy="467.2959" fill="#000000" rx="3" ry="3" style="stroke:#000000;stroke-width:1.0;"/><text fill="#000000" font-family="sans-serif" font-size="14" lengthAdjust="spacing" textLength="69" x="369.5" y="473.4277">supplier_id</text><ellipse cx="360.5" cy="483.3945" fill="#000000" rx="3" ry="3" style="stroke:#000000;stroke-width:1.0;"/><text fill="#000000" font-family="sans-serif" font-size="14" lengthAdjust="spacing" textLength="47" x="369.5" y="489.5264">user_id</text></g><!--MD5=[e0bd77868626c22cfc0c5aeed1b8d67f]
class Sale--><g id="elem_Sale"><rect codeLine="56" fill="#F1F1F1" height="136.4932" id="Sale" rx="2.5" ry="2.5" style="stroke:#181818;stroke-width:0.5;" width="103" x="105.5" y="360"/><ellipse cx="139.85" cy="376" fill="#ADD1B2" rx="11" ry="11" style="stroke:#181818;stroke-width:1.0;"/><path d="M135.9906,381.5 L135.9906,370.2969 L144.0219,370.2969 L144.0219,372.1875 L138.4438,372.1875 L138.4438,374.8906 L143.5219,374.8906 L143.5219,376.7813 L138.4438,376.7813 L138.4438,379.6094 L144.3656,379.6094 L144.3656,381.5 L135.9906,381.5 Z " fill="#000000"/><text fill="#000000" font-family="sans-serif" font-size="14" lengthAdjust="spacing" textLength="28" x="158.15" y="381.0825">Sale</text><line style="stroke:#181818;stroke-width:0.5;" x1="106.5" x2="207.5" y1="392" y2="392"/><ellipse cx="116.5" cy="403" fill="#000000" rx="3" ry="3" style="stroke:#000000;stroke-width:1.0;"/><text fill="#000000" font-family="sans-serif" font-size="14" lengthAdjust="spacing" textLength="11" x="125.5" y="409.1318">id</text><line style="stroke:#181818;stroke-width:0.5;" x1="106.5" x2="207.5" y1="416.0986" y2="416.0986"/><ellipse cx="116.5" cy="427.0986" fill="#000000" rx="3" ry="3" style="stroke:#000000;stroke-width:1.0;"/><text fill="#000000" font-family="sans-serif" font-size="14" lengthAdjust="spacing" textLength="48" x="125.5" y="433.2305">number</text><ellipse cx="116.5" cy="443.1973" fill="#000000" rx="3" ry="3" style="stroke:#000000;stroke-width:1.0;"/><text fill="#000000" font-family="sans-serif" font-size="14" lengthAdjust="spacing" textLength="38" x="125.5" y="449.3291">status</text><line style="stroke:#181818;stroke-width:0.5;" x1="106.5" x2="207.5" y1="456.2959" y2="456.2959"/><ellipse cx="116.5" cy="467.2959" fill="#000000" rx="3" ry="3" style="stroke:#000000;stroke-width:1.0;"/><text fill="#000000" font-family="sans-serif" font-size="14" lengthAdjust="spacing" textLength="77" x="125.5" y="473.4277">customer_id</text><ellipse cx="116.5" cy="483.3945" fill="#000000" rx="3" ry="3" style="stroke:#000000;stroke-width:1.0;"/><text fill="#000000" font-family="sans-serif" font-size="14" lengthAdjust="spacing" textLength="47" x="125.5" y="489.5264">user_id</text></g><!--MD5=[0cfc926ac851c171b4800cdea9975fdf]
class StockProduct--><g id="elem_StockProduct"><rect codeLine="66" fill="#F1F1F1" height="136.4932" id="StockProduct" rx="2.5" ry="2.5" style="stroke:#181818;stroke-width:0.5;" width="141" x="212.5" y="769"/><ellipse cx="238.75" cy="785" fill="#ADD1B2" rx="11" ry="11" style="stroke:#181818;stroke-width:1.0;"/><path d="M234.8906,790.5 L234.8906,779.2969 L242.9219,779.2969 L242.9219,781.1875 L237.3438,781.1875 L237.3438,783.8906 L242.4219,783.8906 L242.4219,785.7813 L237.3438,785.7813 L237.3438,788.6094 L243.2656,788.6094 L243.2656,790.5 L234.8906,790.5 Z " fill="#000000"/><text fill="#000000" font-family="sans-serif" font-size="14" lengthAdjust="spacing" textLength="84" x="255.25" y="790.0825">StockProduct</text><line style="stroke:#181818;stroke-width:0.5;" x1="213.5" x2="352.5" y1="801" y2="801"/><ellipse cx="223.5" cy="812" fill="#000000" rx="3" ry="3" style="stroke:#000000;stroke-width:1.0;"/><text fill="#000000" font-family="sans-serif" font-size="14" lengthAdjust="spacing" textLength="11" x="232.5" y="818.1318">id</text><line style="stroke:#181818;stroke-width:0.5;" x1="213.5" x2="352.5" y1="825.0986" y2="825.0986"/><ellipse cx="223.5" cy="836.0986" fill="#000000" rx="3" ry="3" style="stroke:#000000;stroke-width:1.0;"/><text fill="#000000" font-family="sans-serif" font-size="14" lengthAdjust="spacing" textLength="115" x="232.5" y="842.2305">purchase_number</text><ellipse cx="223.5" cy="852.1973" fill="#000000" rx="3" ry="3" style="stroke:#000000;stroke-width:1.0;"/><text fill="#000000" font-family="sans-serif" font-size="14" lengthAdjust="spacing" textLength="82" x="232.5" y="858.3291">sale_number</text><ellipse cx="223.5" cy="868.2959" fill="#000000" rx="3" ry="3" style="stroke:#000000;stroke-width:1.0;"/><text fill="#000000" font-family="sans-serif" font-size="14" lengthAdjust="spacing" textLength="19" x="232.5" y="874.4277">qty</text><line style="stroke:#181818;stroke-width:0.5;" x1="213.5" x2="352.5" y1="881.3945" y2="881.3945"/><ellipse cx="223.5" cy="892.3945" fill="#000000" rx="3" ry="3" style="stroke:#000000;stroke-width:1.0;"/><text fill="#000000" font-family="sans-serif" font-size="14" lengthAdjust="spacing" textLength="104" x="232.5" y="898.5264">product_number</text></g><!--MD5=[a40a7ac4b423335b0d34bf16cf36e547]
class Price--><g id="elem_Price"><rect codeLine="76" fill="#F1F1F1" height="136.4932" id="Price" rx="2.5" ry="2.5" style="stroke:#181818;stroke-width:0.5;" width="130" x="218" y="1137"/><ellipse cx="262.75" cy="1153" fill="#ADD1B2" rx="11" ry="11" style="stroke:#181818;stroke-width:1.0;"/><path d="M258.8906,1158.5 L258.8906,1147.2969 L266.9219,1147.2969 L266.9219,1149.1875 L261.3438,1149.1875 L261.3438,1151.8906 L266.4219,1151.8906 L266.4219,1153.7813 L261.3438,1153.7813 L261.3438,1156.6094 L267.2656,1156.6094 L267.2656,1158.5 L258.8906,1158.5 Z " fill="#000000"/><text fill="#000000" font-family="sans-serif" font-size="14" lengthAdjust="spacing" textLength="32" x="283.25" y="1158.0825">Price</text><line style="stroke:#181818;stroke-width:0.5;" x1="219" x2="347" y1="1169" y2="1169"/><ellipse cx="229" cy="1180" fill="#000000" rx="3" ry="3" style="stroke:#000000;stroke-width:1.0;"/><text fill="#000000" font-family="sans-serif" font-size="14" lengthAdjust="spacing" textLength="11" x="238" y="1186.1318">id</text><line style="stroke:#181818;stroke-width:0.5;" x1="219" x2="347" y1="1193.0986" y2="1193.0986"/><ellipse cx="229" cy="1204.0986" fill="#000000" rx="3" ry="3" style="stroke:#000000;stroke-width:1.0;"/><text fill="#000000" font-family="sans-serif" font-size="14" lengthAdjust="spacing" textLength="31" x="238" y="1210.2305">price</text><line style="stroke:#181818;stroke-width:0.5;" x1="219" x2="347" y1="1217.1973" y2="1217.1973"/><ellipse cx="229" cy="1228.1973" fill="#000000" rx="3" ry="3" style="stroke:#000000;stroke-width:1.0;"/><text fill="#000000" font-family="sans-serif" font-size="14" lengthAdjust="spacing" textLength="104" x="238" y="1234.3291">product_number</text><ellipse cx="229" cy="1244.2959" fill="#000000" rx="3" ry="3" style="stroke:#000000;stroke-width:1.0;"/><text fill="#000000" font-family="sans-serif" font-size="14" lengthAdjust="spacing" textLength="77" x="238" y="1250.4277">customer_id</text><ellipse cx="229" cy="1260.3945" fill="#000000" rx="3" ry="3" style="stroke:#000000;stroke-width:1.0;"/><text fill="#000000" font-family="sans-serif" font-size="14" lengthAdjust="spacing" textLength="69" x="238" y="1266.5264">supplier_id</text></g><!--MD5=[680168ab3c03721c8f7b2302070ae319]
class SaleDetail--><g id="elem_SaleDetail"><rect codeLine="86" fill="#F1F1F1" height="152.5918" id="SaleDetail" rx="2.5" ry="2.5" style="stroke:#181818;stroke-width:0.5;" width="130" x="130" y="556"/><ellipse cx="160.3" cy="572" fill="#ADD1B2" rx="11" ry="11" style="stroke:#181818;stroke-width:1.0;"/><path d="M156.4406,577.5 L156.4406,566.2969 L164.4719,566.2969 L164.4719,568.1875 L158.8938,568.1875 L158.8938,570.8906 L163.9719,570.8906 L163.9719,572.7813 L158.8938,572.7813 L158.8938,575.6094 L164.8156,575.6094 L164.8156,577.5 L156.4406,577.5 Z " fill="#000000"/><text fill="#000000" font-family="sans-serif" font-size="14" lengthAdjust="spacing" textLength="64" x="177.7" y="577.0825">SaleDetail</text><line style="stroke:#181818;stroke-width:0.5;" x1="131" x2="259" y1="588" y2="588"/><ellipse cx="141" cy="599" fill="#000000" rx="3" ry="3" style="stroke:#000000;stroke-width:1.0;"/><text fill="#000000" font-family="sans-serif" font-size="14" lengthAdjust="spacing" textLength="11" x="150" y="605.1318">id</text><line style="stroke:#181818;stroke-width:0.5;" x1="131" x2="259" y1="612.0986" y2="612.0986"/><ellipse cx="141" cy="623.0986" fill="#000000" rx="3" ry="3" style="stroke:#000000;stroke-width:1.0;"/><text fill="#000000" font-family="sans-serif" font-size="14" lengthAdjust="spacing" textLength="31" x="150" y="629.2305">price</text><ellipse cx="141" cy="639.1973" fill="#000000" rx="3" ry="3" style="stroke:#000000;stroke-width:1.0;"/><text fill="#000000" font-family="sans-serif" font-size="14" lengthAdjust="spacing" textLength="24" x="150" y="645.3291">ppn</text><ellipse cx="141" cy="655.2959" fill="#000000" rx="3" ry="3" style="stroke:#000000;stroke-width:1.0;"/><text fill="#000000" font-family="sans-serif" font-size="14" lengthAdjust="spacing" textLength="19" x="150" y="661.4277">qty</text><line style="stroke:#181818;stroke-width:0.5;" x1="131" x2="259" y1="668.3945" y2="668.3945"/><ellipse cx="141" cy="679.3945" fill="#000000" rx="3" ry="3" style="stroke:#000000;stroke-width:1.0;"/><text fill="#000000" font-family="sans-serif" font-size="14" lengthAdjust="spacing" textLength="82" x="150" y="685.5264">sale_number</text><ellipse cx="141" cy="695.4932" fill="#000000" rx="3" ry="3" style="stroke:#000000;stroke-width:1.0;"/><text fill="#000000" font-family="sans-serif" font-size="14" lengthAdjust="spacing" textLength="104" x="150" y="701.625">product_number</text></g><!--MD5=[3d9bec551640ffb4a026cc7c78c25b79]
class PurchaseDetail--><g id="elem_PurchaseDetail"><rect codeLine="97" fill="#F1F1F1" height="152.5918" id="PurchaseDetail" rx="2.5" ry="2.5" style="stroke:#181818;stroke-width:0.5;" width="141" x="295.5" y="556"/><ellipse cx="316.35" cy="572" fill="#ADD1B2" rx="11" ry="11" style="stroke:#181818;stroke-width:1.0;"/><path d="M312.4906,577.5 L312.4906,566.2969 L320.5219,566.2969 L320.5219,568.1875 L314.9438,568.1875 L314.9438,570.8906 L320.0219,570.8906 L320.0219,572.7813 L314.9438,572.7813 L314.9438,575.6094 L320.8656,575.6094 L320.8656,577.5 L312.4906,577.5 Z " fill="#000000"/><text fill="#000000" font-family="sans-serif" font-size="14" lengthAdjust="spacing" textLength="96" x="331.65" y="577.0825">PurchaseDetail</text><line style="stroke:#181818;stroke-width:0.5;" x1="296.5" x2="435.5" y1="588" y2="588"/><ellipse cx="306.5" cy="599" fill="#000000" rx="3" ry="3" style="stroke:#000000;stroke-width:1.0;"/><text fill="#000000" font-family="sans-serif" font-size="14" lengthAdjust="spacing" textLength="11" x="315.5" y="605.1318">id</text><line style="stroke:#181818;stroke-width:0.5;" x1="296.5" x2="435.5" y1="612.0986" y2="612.0986"/><ellipse cx="306.5" cy="623.0986" fill="#000000" rx="3" ry="3" style="stroke:#000000;stroke-width:1.0;"/><text fill="#000000" font-family="sans-serif" font-size="14" lengthAdjust="spacing" textLength="31" x="315.5" y="629.2305">price</text><ellipse cx="306.5" cy="639.1973" fill="#000000" rx="3" ry="3" style="stroke:#000000;stroke-width:1.0;"/><text fill="#000000" font-family="sans-serif" font-size="14" lengthAdjust="spacing" textLength="24" x="315.5" y="645.3291">ppn</text><ellipse cx="306.5" cy="655.2959" fill="#000000" rx="3" ry="3" style="stroke:#000000;stroke-width:1.0;"/><text fill="#000000" font-family="sans-serif" font-size="14" lengthAdjust="spacing" textLength="19" x="315.5" y="661.4277">qty</text><line style="stroke:#181818;stroke-width:0.5;" x1="296.5" x2="435.5" y1="668.3945" y2="668.3945"/><ellipse cx="306.5" cy="679.3945" fill="#000000" rx="3" ry="3" style="stroke:#000000;stroke-width:1.0;"/><text fill="#000000" font-family="sans-serif" font-size="14" lengthAdjust="spacing" textLength="115" x="315.5" y="685.5264">purchase_number</text><ellipse cx="306.5" cy="695.4932" fill="#000000" rx="3" ry="3" style="stroke:#000000;stroke-width:1.0;"/><text fill="#000000" font-family="sans-serif" font-size="14" lengthAdjust="spacing" textLength="104" x="315.5" y="701.625">product_number</text></g><!--MD5=[c26ae6d58060a6dc125b0061a9f99778]
class Ppn--><g id="elem_Ppn"><rect codeLine="108" fill="#F1F1F1" height="80.1973" id="Ppn" rx="2.5" ry="2.5" style="stroke:#181818;stroke-width:0.5;" width="57" x="373.5" y="7"/><ellipse cx="388.5" cy="23" fill="#ADD1B2" rx="11" ry="11" style="stroke:#181818;stroke-width:1.0;"/><path d="M384.6406,28.5 L384.6406,17.2969 L392.6719,17.2969 L392.6719,19.1875 L387.0938,19.1875 L387.0938,21.8906 L392.1719,21.8906 L392.1719,23.7813 L387.0938,23.7813 L387.0938,26.6094 L393.0156,26.6094 L393.0156,28.5 L384.6406,28.5 Z " fill="#000000"/><text fill="#000000" font-family="sans-serif" font-size="14" lengthAdjust="spacing" textLength="25" x="402.5" y="28.0825">Ppn</text><line style="stroke:#181818;stroke-width:0.5;" x1="374.5" x2="429.5" y1="39" y2="39"/><ellipse cx="384.5" cy="50" fill="#000000" rx="3" ry="3" style="stroke:#000000;stroke-width:1.0;"/><text fill="#000000" font-family="sans-serif" font-size="14" lengthAdjust="spacing" textLength="11" x="393.5" y="56.1318">id</text><line style="stroke:#181818;stroke-width:0.5;" x1="374.5" x2="429.5" y1="63.0986" y2="63.0986"/><ellipse cx="384.5" cy="74.0986" fill="#000000" rx="3" ry="3" style="stroke:#000000;stroke-width:1.0;"/><text fill="#000000" font-family="sans-serif" font-size="14" lengthAdjust="spacing" textLength="24" x="393.5" y="80.2305">ppn</text></g><!--MD5=[0f3988949cdddc01f83f72a0d5066643]
link Role to User--><g id="link_Role_User"><path codeLine="114" d="M308,95.27 C308,108.72 308,123.79 308,138.72 " fill="none" id="Role-User" style="stroke:#181818;stroke-width:1.0;"/><line style="stroke:#181818;stroke-width:1.0;" x1="312" x2="304" y1="142.99" y2="142.99"/><line style="stroke:#181818;stroke-width:1.0;" x1="312" x2="304" y1="139.99" y2="139.99"/><line style="stroke:#181818;stroke-width:1.0;" x1="308" x2="308" y1="138.99" y2="146.99"/><line style="stroke:#181818;stroke-width:1.0;" x1="308" x2="302" y1="95.16" y2="87.16"/><line style="stroke:#181818;stroke-width:1.0;" x1="308" x2="314" y1="95.16" y2="87.16"/><line style="stroke:#181818;stroke-width:1.0;" x1="308" x2="308" y1="95.16" y2="87.16"/><line style="stroke:#181818;stroke-width:1.0;" x1="304" x2="312" y1="97.16" y2="97.16"/></g><!--MD5=[474f0e405c986647f348979b3d9bac30]
link User to Purchase--><g id="link_User_Purchase"><path codeLine="115" d="M344.51,307.58 C351.01,322.36 357.74,337.68 364.13,352.21 " fill="none" id="User-Purchase" style="stroke:#181818;stroke-width:1.0;"/><line style="stroke:#181818;stroke-width:1.0;" x1="369.4865" x2="362.1602" y1="354.4602" y2="357.6735"/><line style="stroke:#181818;stroke-width:1.0;" x1="368.2815" x2="360.9552" y1="351.7128" y2="354.9261"/><line style="stroke:#181818;stroke-width:1.0;" x1="364.2167" x2="367.43" y1="352.4037" y2="359.73"/><line style="stroke:#181818;stroke-width:1.0;" x1="344.4833" x2="335.7753" y1="307.5163" y2="302.6"/><line style="stroke:#181818;stroke-width:1.0;" x1="344.4833" x2="346.7647" y1="307.5163" y2="297.78"/><line style="stroke:#181818;stroke-width:1.0;" x1="344.4833" x2="341.27" y1="307.5163" y2="300.19"/><line style="stroke:#181818;stroke-width:1.0;" x1="341.6235" x2="348.9498" y1="310.9545" y2="307.7412"/></g><!--MD5=[fa16bf6141e1c24f8824fff3082d1ce7]
link User to Sale--><g id="link_User_Sale"><path codeLine="116" d="M258.49,290.9 C243.62,310.84 227.22,332.83 212.02,353.21 " fill="none" id="User-Sale" style="stroke:#181818;stroke-width:1.0;"/><line style="stroke:#181818;stroke-width:1.0;" x1="212.728" x2="206.316" y1="358.956" y2="354.172"/><line style="stroke:#181818;stroke-width:1.0;" x1="214.522" x2="208.11" y1="356.5515" y2="351.7675"/><line style="stroke:#181818;stroke-width:1.0;" x1="211.914" x2="207.13" y1="353.358" y2="359.77"/><line style="stroke:#181818;stroke-width:1.0;" x1="258.526" x2="258.501" y1="290.842" y2="280.842"/><line style="stroke:#181818;stroke-width:1.0;" x1="258.526" x2="268.119" y1="290.842" y2="288.018"/><line style="stroke:#181818;stroke-width:1.0;" x1="258.526" x2="263.31" y1="290.842" y2="284.43"/><line style="stroke:#181818;stroke-width:1.0;" x1="254.124" x2="260.536" y1="290.053" y2="294.837"/></g><!--MD5=[4e61cc6c8c4df3951b5a0cc721e44351]
link Supplier to Purchase--><g id="link_Supplier_Purchase"><path codeLine="117" d="M434.05,304.02 C429.31,319.74 424.35,336.2 419.66,351.77 " fill="none" id="Supplier-Purchase" style="stroke:#181818;stroke-width:1.0;"/><line style="stroke:#181818;stroke-width:1.0;" x1="422.2216" x2="414.5598" y1="357.1398" y2="354.8384"/><line style="stroke:#181818;stroke-width:1.0;" x1="423.0846" x2="415.4228" y1="354.2666" y2="351.9652"/><line style="stroke:#181818;stroke-width:1.0;" x1="419.5414" x2="417.24" y1="352.1582" y2="359.82"/><line style="stroke:#181818;stroke-width:1.0;" x1="434.0955" x2="430.6666" y1="303.8379" y2="294.4441"/><line style="stroke:#181818;stroke-width:1.0;" x1="434.0955" x2="442.1534" y1="303.8379" y2="297.9159"/><line style="stroke:#181818;stroke-width:1.0;" x1="434.0955" x2="436.41" y1="303.8379" y2="296.18"/><line style="stroke:#181818;stroke-width:1.0;" x1="429.6879" x2="437.3458" y1="304.5951" y2="306.9096"/></g><!--MD5=[8dbb028c2b05e4025f5d42a599ab93b5]
link Supplier to Price--><g id="link_Supplier_Price"><path codeLine="118" d="M490.18,302.97 C520.4,383.86 561,514.35 561,631.5 C561,631.5 561,631.5 561,838 C561,974.75 436.4,1092.44 354.03,1155.3 " fill="none" id="Supplier-Price" style="stroke:#181818;stroke-width:1.0;"/><line style="stroke:#181818;stroke-width:1.0;" x1="353.7835" x2="348.9549" y1="1160.5049" y2="1154.1265"/><line style="stroke:#181818;stroke-width:1.0;" x1="356.1754" x2="351.3468" y1="1158.6941" y2="1152.3157"/><line style="stroke:#181818;stroke-width:1.0;" x1="354.5584" x2="348.18" y1="1154.9013" y2="1159.73"/><line style="stroke:#181818;stroke-width:1.0;" x1="485.3116" x2="492.8009" y1="301.4209" y2="298.6084"/><line style="stroke:#181818;stroke-width:1.0;" x1="486.3664" x2="493.8556" y1="304.2294" y2="301.4168"/><line style="stroke:#181818;stroke-width:1.0;" x1="490.4626" x2="487.65" y1="303.7593" y2="296.27"/></g><!--MD5=[d458a1e609d20b4df6a1b1701aeabf58]
link Customer to Sale--><g id="link_Customer_Sale"><path codeLine="119" d="M136.93,295.89 C139.68,313.88 142.65,333.24 145.43,351.42 " fill="none" id="Customer-Sale" style="stroke:#181818;stroke-width:1.0;"/><line style="stroke:#181818;stroke-width:1.0;" x1="145.4746" x2="152.6204" y1="351.7729" y2="358.7685"/><line style="stroke:#181818;stroke-width:1.0;" x1="145.4746" x2="140.7596" y1="351.7729" y2="360.5915"/><line style="stroke:#181818;stroke-width:1.0;" x1="145.4746" x2="146.69" y1="351.7729" y2="359.68"/><line style="stroke:#181818;stroke-width:1.0;" x1="149.1243" x2="141.2172" y1="349.1884" y2="350.4038"/><line style="stroke:#181818;stroke-width:1.0;" x1="132.3329" x2="140.2404" y1="292.3004" y2="291.0871"/><line style="stroke:#181818;stroke-width:1.0;" x1="132.7879" x2="140.6953" y1="295.2657" y2="294.0524"/><line style="stroke:#181818;stroke-width:1.0;" x1="136.8932" x2="135.68" y1="295.6475" y2="287.74"/></g><!--MD5=[ae2c05453d21049e7a5e02ab04069fb0]
link Customer to Price--><g id="link_Customer_Price"><path codeLine="120" d="M92.14,294.23 C56.65,373.86 6,508.97 6,631.5 C6,631.5 6,631.5 6,838 C6,974.38 129.8,1091.99 211.87,1154.97 " fill="none" id="Customer-Price" style="stroke:#181818;stroke-width:1.0;"/><line style="stroke:#181818;stroke-width:1.0;" x1="216.9511" x2="212.1043" y1="1153.8043" y2="1160.1689"/><line style="stroke:#181818;stroke-width:1.0;" x1="214.5644" x2="209.7176" y1="1151.9867" y2="1158.3513"/><line style="stroke:#181818;stroke-width:1.0;" x1="211.3454" x2="217.71" y1="1154.5631" y2="1159.41"/><line style="stroke:#181818;stroke-width:1.0;" x1="89.8114" x2="97.1077" y1="289.6577" y2="292.9386"/><line style="stroke:#181818;stroke-width:1.0;" x1="88.5811" x2="95.8774" y1="292.3938" y2="295.6747"/><line style="stroke:#181818;stroke-width:1.0;" x1="91.8191" x2="95.1" y1="294.9463" y2="287.65"/></g><!--MD5=[1b8181cc673ea47d6cea814c6d86a94d]
link Sale to SaleDetail--><g id="link_Sale_SaleDetail"><path codeLine="121" d="M171.13,504.31 C173.79,518.5 176.59,533.41 179.3,547.83 " fill="none" id="Sale-SaleDetail" style="stroke:#181818;stroke-width:1.0;"/><line style="stroke:#181818;stroke-width:1.0;" x1="183.9854" x2="176.1221" y1="551.1221" y2="552.5946"/><line style="stroke:#181818;stroke-width:1.0;" x1="183.4331" x2="175.5698" y1="548.1733" y2="549.6459"/><line style="stroke:#181818;stroke-width:1.0;" x1="179.3174" x2="180.79" y1="547.9267" y2="555.79"/><line style="stroke:#181818;stroke-width:1.0;" x1="171.0838" x2="163.7041" y1="504.0112" y2="497.2628"/><line style="stroke:#181818;stroke-width:1.0;" x1="171.0838" x2="175.4959" y1="504.0112" y2="495.0372"/><line style="stroke:#181818;stroke-width:1.0;" x1="171.0838" x2="169.6" y1="504.0112" y2="496.15"/><line style="stroke:#181818;stroke-width:1.0;" x1="167.5241" x2="175.3853" y1="506.7184" y2="505.2346"/></g><!--MD5=[fd58fb4015992d940e1d5ff8549f8c35]
link Sale to Price--><g id="link_Sale_Price"><path codeLine="122" d="M126.09,502.84 C120.25,519.99 115.03,538.4 112,556 C100.48,623.02 102.25,641.7 112,709 C134.52,864.47 204.54,1035.56 247.68,1130.37 " fill="none" id="Sale-Price" style="stroke:#181818;stroke-width:1.0;"/><line style="stroke:#181818;stroke-width:1.0;" x1="252.5936" x2="245.3123" y1="1131.4823" y2="1134.7964"/><line style="stroke:#181818;stroke-width:1.0;" x1="251.3508" x2="244.0695" y1="1128.7518" y2="1132.066"/><line style="stroke:#181818;stroke-width:1.0;" x1="247.2959" x2="250.61" y1="1129.4987" y2="1136.78"/><line style="stroke:#181818;stroke-width:1.0;" x1="123.3581" x2="130.9143" y1="498.5343" y2="501.1619"/><line style="stroke:#181818;stroke-width:1.0;" x1="122.3728" x2="129.929" y1="501.3679" y2="503.9954"/><line style="stroke:#181818;stroke-width:1.0;" x1="125.8225" x2="128.45" y1="503.6262" y2="496.07"/></g><!--MD5=[c0e5a52b16fbcef22495159b374d909e]
link Purchase to PurchaseDetail--><g id="link_Purchase_PurchaseDetail"><path codeLine="123" d="M385.47,504.31 C383.3,518.5 381.02,533.41 378.81,547.83 " fill="none" id="Purchase-PurchaseDetail" style="stroke:#181818;stroke-width:1.0;"/><line style="stroke:#181818;stroke-width:1.0;" x1="382.1504" x2="374.2429" y1="552.4429" y2="551.2296"/><line style="stroke:#181818;stroke-width:1.0;" x1="382.6053" x2="374.6979" y1="549.4776" y2="548.2643"/><line style="stroke:#181818;stroke-width:1.0;" x1="378.8032" x2="377.59" y1="547.8825" y2="555.79"/><line style="stroke:#181818;stroke-width:1.0;" x1="385.5068" x2="380.7894" y1="504.0575" y2="495.2401"/><line style="stroke:#181818;stroke-width:1.0;" x1="385.5068" x2="392.6506" y1="504.0575" y2="497.0599"/><line style="stroke:#181818;stroke-width:1.0;" x1="385.5068" x2="386.72" y1="504.0575" y2="496.15"/><line style="stroke:#181818;stroke-width:1.0;" x1="381.2497" x2="389.1572" y1="505.4277" y2="506.641"/></g><!--MD5=[9aab0b89b89995cf669aab5ed34799da]
link Purchase to Price--><g id="link_Purchase_Price"><path codeLine="124" d="M436.36,502.78 C443.66,519.8 450.18,538.16 454,556 C468.24,622.49 462.31,641.51 454,709 C434.81,864.92 363.63,1035.85 319.38,1130.51 " fill="none" id="Purchase-Price" style="stroke:#181818;stroke-width:1.0;"/><line style="stroke:#181818;stroke-width:1.0;" x1="321.6908" x2="314.4493" y1="1134.9893" y2="1131.5892"/><line style="stroke:#181818;stroke-width:1.0;" x1="322.9658" x2="315.7243" y1="1132.2737" y2="1128.8736"/><line style="stroke:#181818;stroke-width:1.0;" x1="319.7701" x2="316.37" y1="1129.6685" y2="1136.91"/><line style="stroke:#181818;stroke-width:1.0;" x1="431.3685" x2="438.6918" y1="501.3518" y2="498.1315"/><line style="stroke:#181818;stroke-width:1.0;" x1="432.5761" x2="439.8994" y1="504.098" y2="500.8777"/><line style="stroke:#181818;stroke-width:1.0;" x1="436.6403" x2="433.42" y1="503.4032" y2="496.08"/></g><!--MD5=[94795bd4cafbfd185826e83926e5e28e]
link PurchaseDetail to StockProduct--><g id="link_PurchaseDetail_StockProduct"><path codeLine="125" d="M331.76,717.04 C325.75,731.7 319.53,746.88 313.63,761.28 " fill="none" id="PurchaseDetail-StockProduct" style="stroke:#181818;stroke-width:1.0;"/><line style="stroke:#181818;stroke-width:1.0;" x1="313.6002" x2="316.1229" y1="761.3261" y2="771.0026"/><line style="stroke:#181818;stroke-width:1.0;" x1="313.6002" x2="305.0171" y1="761.3261" y2="766.4574"/><line style="stroke:#181818;stroke-width:1.0;" x1="313.6002" x2="310.57" y1="761.3261" y2="768.73"/><line style="stroke:#181818;stroke-width:1.0;" x1="318.0597" x2="310.6558" y1="760.9902" y2="757.96"/><line style="stroke:#181818;stroke-width:1.0;" x1="329.7593" x2="337.1582" y1="711.3682" y2="714.4107"/><line style="stroke:#181818;stroke-width:1.0;" x1="328.6184" x2="336.0173" y1="714.1428" y2="717.1852"/><line style="stroke:#181818;stroke-width:1.0;" x1="331.9376" x2="334.98" y1="716.5889" y2="709.19"/></g><!--MD5=[cc8c2cf61c441007fd82fc98c1838a15]
link SaleDetail to Product--><g id="link_SaleDetail_Product"><path codeLine="126" d="M181.39,717.02 C175.71,771.9 174.5,844.47 195,905 C203.62,930.46 220.4,954.72 237.01,974.33 " fill="none" id="SaleDetail-Product" style="stroke:#181818;stroke-width:1.0;"/><line style="stroke:#181818;stroke-width:1.0;" x1="237.1373" x2="246.912" y1="974.4873" y2="976.598"/><line style="stroke:#181818;stroke-width:1.0;" x1="237.1373" x2="237.848" y1="974.4873" y2="984.462"/><line style="stroke:#181818;stroke-width:1.0;" x1="237.1373" x2="242.38" y1="974.4873" y2="980.53"/><line style="stroke:#181818;stroke-width:1.0;" x1="238.848" x2="232.8053" y1="970.3553" y2="975.598"/><line style="stroke:#181818;stroke-width:1.0;" x1="177.8483" x2="185.8008" y1="712.6008" y2="713.4717"/><line style="stroke:#181818;stroke-width:1.0;" x1="177.5217" x2="185.4742" y1="715.5829" y2="716.4539"/><line style="stroke:#181818;stroke-width:1.0;" x1="181.3891" x2="182.26" y1="717.0125" y2="709.06"/></g><!--MD5=[14568f368dad8dc98a8cb2dbe8f153bd]
link SaleDetail to StockProduct--><g id="link_SaleDetail_StockProduct"><path codeLine="127" d="M231.1,716.58 C237.53,731.36 244.18,746.68 250.5,761.21 " fill="none" id="SaleDetail-StockProduct" style="stroke:#181818;stroke-width:1.0;"/><line style="stroke:#181818;stroke-width:1.0;" x1="250.5859" x2="259.2743" y1="761.3909" y2="766.342"/><line style="stroke:#181818;stroke-width:1.0;" x1="250.5859" x2="248.2657" y1="761.3909" y2="771.118"/><line style="stroke:#181818;stroke-width:1.0;" x1="250.5859" x2="253.77" y1="761.3909" y2="768.73"/><line style="stroke:#181818;stroke-width:1.0;" x1="253.4594" x2="246.1204" y1="757.9641" y2="761.1482"/><line style="stroke:#181818;stroke-width:1.0;" x1="225.8125" x2="233.1516" y1="714.4516" y2="711.2675"/><line style="stroke:#181818;stroke-width:1.0;" x1="227.0065" x2="234.3456" y1="717.2037" y2="714.0196"/><line style="stroke:#181818;stroke-width:1.0;" x1="231.0741" x2="227.89" y1="716.5291" y2="709.19"/></g><!--MD5=[636c4cbf2bb40ce634cacaf01a62e11c]
link PurchaseDetail to Product--><g id="link_PurchaseDetail_Product"><path codeLine="128" d="M381.89,717.02 C388.89,771.89 391.51,844.46 371,905 C362.38,930.46 345.6,954.72 328.99,974.33 " fill="none" id="PurchaseDetail-Product" style="stroke:#181818;stroke-width:1.0;"/><line style="stroke:#181818;stroke-width:1.0;" x1="328.8627" x2="328.152" y1="974.4873" y2="984.462"/><line style="stroke:#181818;stroke-width:1.0;" x1="328.8627" x2="319.088" y1="974.4873" y2="976.598"/><line style="stroke:#181818;stroke-width:1.0;" x1="328.8627" x2="323.62" y1="974.4873" y2="980.53"/><line style="stroke:#181818;stroke-width:1.0;" x1="333.1947" x2="327.152" y1="975.598" y2="970.3553"/><line style="stroke:#181818;stroke-width:1.0;" x1="377.3937" x2="385.3236" y1="713.5436" y2="712.4863"/><line style="stroke:#181818;stroke-width:1.0;" x1="377.7902" x2="385.7201" y1="716.5173" y2="715.4599"/><line style="stroke:#181818;stroke-width:1.0;" x1="381.8873" x2="380.83" y1="716.9798" y2="709.05"/></g><!--MD5=[469537f6e6fbfad22558102ade648a2e]
link StockProduct to Product--><g id="link_StockProduct_Product"><path codeLine="129" d="M283,913.62 C283,928 283,942.9 283,956.84 " fill="none" id="StockProduct-Product" style="stroke:#181818;stroke-width:1.0;"/><line style="stroke:#181818;stroke-width:1.0;" x1="283" x2="289" y1="956.93" y2="964.93"/><line style="stroke:#181818;stroke-width:1.0;" x1="283" x2="277" y1="956.93" y2="964.93"/><line style="stroke:#181818;stroke-width:1.0;" x1="283" x2="283" y1="956.93" y2="964.93"/><line style="stroke:#181818;stroke-width:1.0;" x1="287" x2="279" y1="954.93" y2="954.93"/><line style="stroke:#181818;stroke-width:1.0;" x1="279" x2="287" y1="909.25" y2="909.25"/><line style="stroke:#181818;stroke-width:1.0;" x1="279" x2="287" y1="912.25" y2="912.25"/><line style="stroke:#181818;stroke-width:1.0;" x1="283" x2="283" y1="913.25" y2="905.25"/></g><!--MD5=[5fa2e163e1a5922a0d0ebcb119c05bb7]
link Product to Price--><g id="link_Product_Price"><path codeLine="130" d="M283,1084.27 C283,1098.84 283,1114.51 283,1129.55 " fill="none" id="Product-Price" style="stroke:#181818;stroke-width:1.0;"/><line style="stroke:#181818;stroke-width:1.0;" x1="287" x2="279" y1="1132.88" y2="1132.88"/><line style="stroke:#181818;stroke-width:1.0;" x1="287" x2="279" y1="1129.88" y2="1129.88"/><line style="stroke:#181818;stroke-width:1.0;" x1="283" x2="283" y1="1128.88" y2="1136.88"/><line style="stroke:#181818;stroke-width:1.0;" x1="279" x2="287" y1="1081.1" y2="1081.1"/><line style="stroke:#181818;stroke-width:1.0;" x1="279" x2="287" y1="1084.1" y2="1084.1"/><line style="stroke:#181818;stroke-width:1.0;" x1="283" x2="283" y1="1085.1" y2="1077.1"/></g><!--MD5=[4a3bc86eeb5bae94f4f8f0636a52b586]
@startuml Database

entity User {
  * id
  __
  * name
  * username
  * status
  * password
  __
  * role_id
}

entity Role {
  * id
  __
  * name
}

entity Customer {
  * id
  __
  * name
  * address
  * phone
  * npwp
}

entity Product {
  * id
  __
  * number
  * name
  * unit
}

entity Supplier {
  * id
  __
  * name
  * address
  * phone
  * email
  * npwp
}

entity Purchase {
  * id
  __
  * number
  * status
  __
  * supplier_id
  * user_id
}

entity Sale {
  * id
  __
  * number
  * status
  __
  * customer_id
  * user_id
}

entity StockProduct {
  * id
  __
  * purchase_number
  * sale_number
  * qty
  __
  * product_number
}

entity Price {
  * id
  __
  * price
  __
  * product_number
  * customer_id
  * supplier_id
}

entity SaleDetail {
  * id
  __
  * price
  * ppn
  * qty
  __
  * sale_number
  * product_number
}

entity PurchaseDetail {
  * id
  __
  * price
  * ppn
  * qty
  __
  * purchase_number
  * product_number
}

entity Ppn {
  * id
  __
  * ppn
}

Role }|- -|| User
User }|- -|| Purchase
User }|- -|| Sale
Supplier }|- -|| Purchase
Supplier ||- -|| Price
Customer ||- -|{ Sale
Customer ||- -|| Price
Sale }|- -|| SaleDetail
Sale ||- -|| Price
Purchase }|- -|| PurchaseDetail
Purchase ||- -|| Price
PurchaseDetail ||- -|{ StockProduct
SaleDetail ||- -|{ Product
SaleDetail ||- -|{ StockProduct
PurchaseDetail ||- -|{ Product
StockProduct ||- -|{ Product
Product ||- -|| Price
@end

PlantUML version 1.2022.5(Sat Apr 30 17:55:52 WIB 2022)
(GPL source distribution)
Java Runtime: OpenJDK Runtime Environment
JVM: OpenJDK 64-Bit Server VM
Default Encoding: UTF-8
Language: en
Country: US
--></g></svg>